<?xml version="1.0"?>
<svg xmlns:rdf="http://www.w3.org/1999/02/22-rdf-syntax-ns#" xmlns="http://www.w3.org/2000/svg" xmlns:cc="http://web.resource.org/cc/" xmlns:dc="http://purl.org/dc/elements/1.1/" xmlns:sodipodi="http://inkscape.sourceforge.net/DTD/sodipodi-0.dtd" xmlns:svg="http://www.w3.org/2000/svg" id="Layer_1" style="enable-background:new 0 0 220.9 204.08" xml:space="preserve" sodipodi:version="0.32" viewBox="0 0 220.9 204.08" version="1.0" sodipodi:docname="Pattinatrice.svg" sodipodi:docbase="F:\openclip\svg2">
<sodipodi:namedview id="base" bordercolor="#666666" borderopacity="1.0" pagecolor="#ffffff"/>
<path id="path3" fill="#D59758" d="m192.2 83.179c2.351-3.362 6.487-4.731 10.478-4.904 4.377-0.189 8.749 0.024 13.12 0.297 1.671 0.104 4.433 0.703 4.918 2.669 0.249 1.01-0.013 1.658-0.675 2.485-0.562 0.701-1.304 1.439-2.177 1.73-4.156 1.386-8.716 1.811-13.051 2.32-4.217 0.496-8.531 0.706-12.694 1.498-2.18 0.415-4.369 1.132-6.528 1.658-2.022 0.492-4.039 1.005-6.05 1.545-4.19 1.125-8.429 2.203-12.566 3.509-2.064 0.652-4.11 1.284-6.26 1.553-0.482 0.061-0.95 0.141-1.437 0.141-0.312 0-0.853-0.204-1.126-0.079-1.08 0.491-2.16 0.981-3.24 1.472-1.961 0.892-4.227 1.396-6.299 1.987-2.023 0.579-4.066 1.08-6.126 1.521-4.359 0.936-8.716 1.686-13.126 2.341-1.151 0.172-2.313 0.266-3.462 0.456 0.924-4.897 1.848-9.794 2.771-14.691 0.162-0.861 0.324-1.721 0.486-2.582 0.104-0.551 1.892-0.288 2.379-0.304 0.949-0.031 1.842-0.348 2.783-0.423 1.06-0.085 2.117-0.185 3.18-0.224 4.341-0.161 8.688 0.014 13.024 0.255 0.979 0.054 2.085 0.284 3.058 0.145 1.067-0.153 2.033-0.413 3.057-0.753 0.899-0.299 1.655-0.744 2.585-0.977 1.057-0.264 2.079-0.494 3.153-0.667 8.75-1.419 17.696-1.576 26.539-1.861 0.64-0.024 3.09 0.281 3.31-0.119"/>
<path id="path5" fill="#D59758" d="m117 119.38c0.492 2.249 0.8 4.353 0.995 6.647 0.184 2.148-0.161 4.476-0.336 6.619-0.343 4.217-1.239 8.441-2.355 12.515-0.527 1.925-1.128 3.935-1.402 5.921-0.141 1.019-0.198 2.097 0.049 3.099 0.253 1.019 0.207 2.161 0.245 3.254 0.136 3.96-0.561 8.497-2.031 12.185-1.547 3.876-3.264 7.72-3.264 11.997 0 1.049 0.1 2.104 0.1 3.143 0 1.041 0.414 2.207 0.564 3.266 0.135 0.952 0.014 1.961-0.08 2.912-0.09 0.916-0.212 2.133-0.736 2.922-0.225 0.339-0.132 0.319-0.558 0.399-0.586 0.11-1.171 0.222-1.757 0.332-1.044 0.197-2.088 0.394-3.133 0.591-0.066-0.5-0.133-1-0.199-1.5-1.334 1.065-2.92 1.814-4.238 2.651-1.514 0.962-3.002 2.149-4.762 2.548-4.1 0.267-8.201 0.534-12.301 0.801 0.428-4.685 5.583-5.901 9.098-7.791 3.693-1.985 5.651-5.623 7.278-9.338 0.84-1.917 1.796-3.877 2.425-5.871 0.664-2.105 0.683-4.555 0.935-6.739 0.484-4.19 0.827-8.383 1.175-12.585 0.171-2.066-0.466-3.897-0.8-5.914-0.067-0.403-0.31-0.806-0.31-1.212 0-0.572 0.064-1.149 0.098-1.721 0.054-0.93 0.063-1.862 0.125-2.791 0.291-4.354 0.542-8.74 0.688-13.101 0.064-1.915 0.113-3.832 0.232-5.744 0.033-0.535-0.181-1.395 0.351-1.618 0.776-0.325 1.553-0.651 2.329-0.977 2.491-1.045 4.981-2.09 7.472-3.135 1.031-0.433 2.063-0.866 3.095-1.299 0.29-0.121 0.579-0.243 0.869-0.365 0.1-0.07 0.32-0.09 0.13-0.12"/>
<path id="path7" fill="#FF7F00" d="m133.6 91.779c-0.667-0.8-1.333-1.6-2-2.4 1.667-1 3.333-2 5-3-1.667-0.833-3.333-1.667-5-2.5 1.167-0.833 2.333-1.667 3.5-2.5-8.213 2.843-16.569 5.365-24.881 7.895-0.427 0.13-1.912 0.213-2.151 0.667-0.256 0.485-0.512 0.97-0.768 1.456-1.218 2.309-2.436 4.618-3.653 6.927-2.567 4.867-5.133 9.733-7.7 14.599-0.522 0.991-0.317 1.976-0.366 3.091-0.08 1.815-0.179 3.62-0.466 5.416-0.295 1.852-0.624 3.696-0.959 5.541-0.286 1.57-0.487 3.415-1.056 4.907l3.318-1.422c0.532-0.229 2.058 1.423 2.51 1.785 0.404 0.323 1.96-1.429 2.321-1.744 0.583-0.511 1.425-1.726 2.242-1.521 0.696 0.174 1.392 0.349 2.088 0.522 0.333 0.083 1.182 0.476 1.521 0.38 0.294-0.083 0.738-0.738 0.949-0.949l1.683-1.683c0.708-0.708 2.002-0.368 2.96-0.368 0.226 0 0.85 0.134 0.952-0.104 0.273-0.639 0.547-1.277 0.821-1.916 0.209-0.489 0.419-0.979 0.629-1.468 0.072-0.168 0.878-0.361 1.039-0.426 1.277-0.511 2.554-1.021 3.831-1.532 0.422-0.169 0.134-2.718 0.134-3.189 0-0.203-0.129-0.832 0.105-0.891 0.663-0.166 1.327-0.332 1.991-0.498 0.6-0.149 1.199-0.3 1.798-0.449 0.253-0.063 0.105-1.008 0.105-1.234v-1.775c0-0.144 0.918-0.59 1.037-0.665 0.265-0.165 3.008-1.671 2.96-1.863-0.31-1.237-0.618-2.474-0.928-3.71-0.163-0.652 2.082-1.474 2.611-1.768 0.563-0.313 1.125-0.625 1.688-0.938 0.283-0.157-0.176-0.791-0.28-1.034-0.308-0.717-0.614-1.434-0.922-2.151-0.211-0.491-0.118-0.417 0.339-0.703 1.165-0.728 2.33-1.457 3.495-2.185-0.417-0.5-0.833-1-1.25-1.5-0.186-0.223-1.276-1.21-1.25-1.5s1.277-1.064 1.5-1.25c0.5-0.417 1-0.833 1.5-1.25-0.33-0.384-0.65-0.768-1-1.116"/>
<path id="path9" fill="#F7C6ED" d="m151.9 66.079c-0.999-1.117-2.811-0.895-4-0.3-0.64 0.32-1.368 0.581-2.101 0.5-0.328-0.036-1.099-0.269-1.099-0.75 0-0.58-1.567-0.472-1.939-0.336-0.839 0.305-1.544 0.658-2.299 1.137-1.382 0.878-2.696 1.999-3.863 3.149 0.604-2.036 0.942-4.409 2.125-6.186 1.056-1.588 2.761-2.612 4.534-3.054 0.938-0.234 1.956-0.513 2.903-0.67 0.948-0.158 2.14-0.291 2.962-0.784 0.862-0.517 0.976-1.731 0.976-2.628 0-0.862 1.301-1.18 1.752-1.855 0.159-0.239 0.441-0.423 0.549-0.622 0.307 0.908-0.357 2.173-1.301 2.4 0.267 0.303-0.045 0.727 0 1.1 0.44-0.327 0.899-0.513 1.301-0.9 0.264-0.255 0.504-0.747 0.699-0.9 0.374-0.293 0.997-0.297 1.348-0.647 0.328-0.327 0.605-0.771 0.953-1.053 0.274 0.689 0.382 1.118-0.199 1.7-0.433 0.433-1.146 0.882-1.723 1.074-0.172 0.057-0.218 0.585-0.262 0.763-0.051 0.206-0.379 0.68-0.516 0.863-0.321 0.431-0.974 0.784-1.201 1.2 0.613 0 1.218 0.084 1.8 0.1 0.279 0.077 0.51 0.404 0.801 0.55 0.332 0.167 0.64 0.41 1 0.5 0.442 0.111 1.525 0.378 1.899 0.05-0.033 0.717-0.905 0.958-1.5 0.9-0.231-0.022-0.473-0.127-0.7-0.1-0.142 0.017-0.335 0.209-0.5 0.25-0.207 0.051-0.385 0.041-0.599 0.05-1.124 0.048-2.589-0.606-3.552 0.352-0.512 0.509-1.481 1.545-0.249 2.148 0.406 0.199 1.153 0.102 1.678 0.452 0.463 0.31 0.802 1.317 0.322 1.648 0.01-0.034 0.01-0.068 0.01-0.101"/>
<path id="path11" fill="#F7C6ED" d="m18.2 99.579c-0.524 0.715-2.122 0.601-2.922 0.601-1.078 0-1.737-0.046-2.578-0.801-0.793-0.712-1.496-1.593-2.159-2.424-0.456-0.57-1.076-1.531-1.94-1.476-0.73-0.637-1.147-1.832-1.922-2.348-0.904-0.603-2.003-0.882-3.002-1.282-0.454-0.182-0.906-0.651-1.06-0.033-0.133 0.532 0.237 0.989 0.684 1.213 0.449 0.224 0.822 0.198 1.05 0.649 0.167 0.333 0.67 0.66 1.05 0.6 0.104 0.072 0.504 0.657 0.651 0.878 0.167 0.25 0.568 0.631 0.849 0.722-0.728-0.137-1.363-0.614-2-0.9-0.627-0.282-1.196-0.4-1.9-0.4-0.848 0-2.089-0.097-2.8-0.5-0.295 1.482 1.189 1.601 2.3 1.601h0.2c0.113 0.044 0.172 0.086 0.3 0.199h0.3c-0.397 0.023-0.781 0.1-1.199 0.1-0.67 0.018-1.489 0.68-2.101 0.9 0.389 0.216 0.543 0.5 1.022 0.5 0.375 0 0.846-0.116 1.178-0.1 0.344 0.017 1.644 0.573 1.8 0.2 0.4 0.599 0.833 1.072 1.4 1.5-0.307 0.033-1.436-0.427-1.731 0.163-0.22 0.439-0.352 0.962-0.617 1.36-0.173 0.26-0.401 0.766-0.651 0.877 0.601 0.783 1.072 0.227 1.548-0.248 0.123-0.123 0.079-0.373 0.152-0.451 0.1-0.105 0.373-0.104 0.5-0.201 0.187-0.143 0.31-0.344 0.199-0.5 0.475 0.607 1.457 0.312 1.75 0.901 0.34 0.681 0.986 1.52 1.628 1.95 0.598 0.401 1.125 0.64 1.522 1.249 0.419 0.643 0.839 1.013 1.623 1.273 1.466 0.486 3.364 0.327 4.826-0.252 0.763-0.303 1.202-0.945 1.89-1.291 0.636-0.319 1.27-0.33 1.962-0.33-0.31-0.711-0.62-1.422-0.93-2.133-0.153-0.35-0.507-1.684-0.872-1.771"/>
<path id="path13" fill="#AB0805" d="m57.1 91.479c-2.183-0.11-4.191-0.282-6.366 0.153-2.054 0.411-3.764 1.373-5.534 2.247-1.823 0.9-3.621 1.163-5.629 0.896-2.133-0.284-4.247-0.196-6.389-0.019-2.264 0.188-4.35 0.736-6.515 1.403-0.851 0.262-1.879 0.771-2.625 1.257-0.514 0.335-2.242 1.052-2.242 1.686v7.673c0 0.421 1.839 1.018 2.223 1.178 1.04 0.434 2.126 0.685 3.213 0.975 2.014 0.539 4.385 0.214 6.194-0.803 0.397-0.224 0.846-0.594 1.271-0.748 0.402-0.146 0.985-0.196 1.422-0.282 0.852-0.168 1.793-0.134 2.657-0.05 2.209 0.214 4.469 0.639 6.679 0.273 2.16-0.357 4.36-0.811 6.457-1.445 2.284-0.692 4.48-1.455 6.708-2.312 1.814-0.697 3.619-1.602 5.44-2.204 1.938-0.642 4.148-0.714 6.167-0.476 1.187 0.14 2.232 0.353 3.384 0.672 0.79 0.22 1.458 1.096 2.037 1.675 2.045 2.045 3.355 4.903 5.675 6.643 1.266 0.949 2.481 1.793 3.962 2.362 1.446 0.557 2.788 0.646 4.313 0.544 0.823-0.29 1.619-0.495 2.399-1 0.44-0.285 0.825-0.641 1.275-0.922 0.372-0.232 1.101 0.175 1.275 0.522 0.202 0.403 0.317 0.834 0.519 1.237 0.103 0.206 0.23 0.363 0.305 0.585 0.135 0.4 0.233 0.375 0.563 0.208 0.95-0.48 1.84-1.055 2.742-1.618 1.577-0.985 3.323-2.552 4.518-3.964 1.489-1.759 2.954-3.535 4.102-5.548 1.279-2.242 2.124-4.585 2.918-7.022 0.729-2.236 0.996-4.559 1.382-6.877-0.911 0-1.744 0.093-2.645 0.206-0.521 0.065-1.001 0.156-1.511 0.283-0.236 0.059-0.469 0.224-0.686 0.332-0.227 0.113-0.333-0.194-0.518-0.38-1.474-1.476-2.833-3.079-4.741-4.041-0.423-0.214-0.885-0.387-1.354-0.439-0.243-0.027-0.558 0.062-0.53-0.217 0.016-0.161-0.008-0.844 0.162-0.844 1.062 0 2.114 0.1 3.174 0.1 2.266 0 4.474-0.032 6.72-0.353 0.976-0.139 1.968-0.225 2.921-0.476 0.498-0.131 1.016-0.232 1.501-0.404 0.507-0.179 1.168-0.567 1.707-0.567 1.883 0 4.302-0.448 5.913-1.473 0.991-0.63 1.753-1.245 2.446-2.197 0.515-0.708 1.894-0.87 2.71-1.122 1.878-0.578 3.881-1.575 5.571-2.568 0.872-0.513 2.063-1.043 2.78-1.761 0.384-0.384 0.847-0.751 1.179-1.18 0.132-0.17 0.757-1.05 0.688-1.227-0.829-2.156-1.657-4.311-2.486-6.466-0.11-0.287-5.409 1.158-6.015 1.299-2.067 0.482-4.142 0.939-6.204 1.441-4.385 1.067-8.731 2.149-13.028 3.535-1.896 0.611-3.624 1.553-5.493 2.232-2.021 0.734-4.128 1.229-6.229 1.679-0.939 0.201-1.969 0.284-2.928 0.42-1.034 0.147-2.039 0.448-3.055 0.687-2.029 0.478-4.169 0.979-6.049 1.9-4.314 2.111-8.656 4.177-13.017 6.207-1.372 0.639-2.744 1.277-4.116 1.916-1.151 0.536-2.404 0.797-3.556 1.373-1.466 0.733-2.856 1.58-4.211 2.505-0.69 0.472-1.343 0.995-1.996 1.517-0.378 0.285-1.168 1.157-1.623 1.181"/>
<path id="path15" fill="#B2B2B2" d="m127.5 52.579c1.17-0.976 1.878-2.063 2.655-3.359 0.397-0.663 0.728-1.351 1.103-2.025 0.309-0.556 0.822-1.309 0.943-1.916 0 3.077-2.838 5.394-4.102 8-0.17-0.24-0.34-0.611-0.6-0.7"/>
<path id="path17" fill="#B2B2B2" d="m126.4 53.879c0.287-0.862 0.586-1.474 1.022-2.238 0.478-0.838 1.06-1.599 1.557-2.427 0.457-0.762 1.041-1.431 1.479-2.219 0.237-0.427 0.478-0.852 0.721-1.276 0.28-0.487 0.139-0.631-0.079-1.139-0.259 0.5-0.533 1.026-0.762 1.541-0.285 0.64-0.691 1.167-1.001 1.785-0.641 1.283-1.268 2.496-2.437 3.374 0.641-1.286 1.313-2.531 1.849-3.874 0.254-0.634 0.522-1.238 0.738-1.887 0.099-0.297 0.271-0.592 0.323-0.901 0.106-0.635 0.047-0.554-0.552-0.778-0.387-0.145-0.476 1.168-0.57 1.483-0.222 0.736-0.467 1.47-0.653 2.216-0.353 1.411-0.883 2.891-1.635 4.141-0.163-0.423-0.325-0.847-0.488-1.27-0.033-0.086 0.26-0.711 0.317-0.854 0.305-0.762 0.616-1.512 0.877-2.291 0.232-0.697 0.523-1.41 0.614-2.144 0.037-0.298 0.246-0.958 0.18-1.241-0.073-0.313-0.595-0.743-0.801-1 0.013 1.159-0.171 2.458-0.399 3.6-0.236 1.179-0.361 2.417-1.101 3.4 0-1.647 0.159-3.304-0.004-4.943-0.052-0.513 0.028-2.308-0.395-2.657-0.124-0.102-1.102 0.065-1.102 0.2 0 0.445 0.259 0.823 0.307 1.25 0.196 1.779 0.856 3.603 0.602 5.398-0.126 0.882 0.249 1.573 0.546 2.426 0.2 0.573 0.4 1.146 0.601 1.719 0.05 0.151 0.19 0.793 0.24 0.606"/>
<path id="path19" fill="#B2B2B2" d="m128.2 53.379c1.359-0.543 2.331-2.266 3.226-3.384 0.438-0.547 0.821-1.141 1.223-1.716 0.319-0.456 1.276-1.376 1.251-1.9 0.035 0.306 0.502 0.602 0.801 0.7-0.578 1.31-1.893 2.367-2.836 3.417-0.471 0.524-0.933 1.051-1.432 1.549-0.438 0.438-1.296 0.988-1.533 1.534 1.347-0.539 2.588-1.789 3.606-2.806 0.504-0.503 1.055-0.957 1.56-1.461 0.473-0.472 1.265-0.913 1.533-1.534 0.355 0.427 0.6 0.476 0.242 0.924-0.23 0.289-0.499 0.563-0.776 0.806-0.638 0.558-1.323 1.015-1.981 1.542-0.654 0.523-1.319 1.017-2.018 1.483-0.671 0.447-1.344 1.108-2.066 1.444 1.549-0.442 2.891-1.332 4.201-2.25 1.263-0.884 2.598-1.871 3.699-2.95 0.264 0.462 0.499 0.581 0.149 1-0.303 0.364-0.665 0.621-1.05 0.9-0.722 0.524-1.481 0.942-2.231 1.419-1.554 0.99-3.212 1.877-4.868 2.68-0.149-0.322-0.381-1.21-0.699-1.3 0.01-0.03 0.01-0.064 0.01-0.097"/>
<path id="path21" fill="#B2B2B2" d="m129.8 54.679c1.543-0.618 2.996-1.521 4.511-2.22 1.468-0.677 2.943-1.36 4.391-2.08-0.152 0.898-0.751 1.075-1.527 1.463-0.73 0.365-1.468 0.708-2.211 1.045-1.498 0.68-3.114 1.231-4.563 1.992 3.207-0.401 6.045-2.116 8.899-3.5 0.084 0.5 0.132 0.801-0.443 1.017-0.501 0.188-0.983 0.387-1.47 0.608-0.88 0.4-1.843 0.636-2.749 0.984-0.859 0.33-1.763 0.601-2.638 0.891-0.46 0.153-0.929 0.276-1.389 0.43-0.65 0.218-0.57 0.009-0.81-0.63"/>
<path id="path23" fill="#B2B2B2" d="m130.6 55.579c1.594 0 3.112-0.582 4.591-1.15 1.559-0.6 3.233-1.074 4.71-1.85 0 0.524 0.003 0.718-0.5 1-0.324 0.182-0.733 0.275-1.086 0.403-0.796 0.29-1.596 0.568-2.405 0.817-0.825 0.254-1.661 0.431-2.493 0.657-0.765 0.208-1.838 0.346-2.516 0.723-0.07-0.212-0.13-0.439-0.29-0.6"/>
<path id="path25" fill="#B2B2B2" d="m133 57.579c1.464-0.7 2.922-1.164 4.521-1.484 0.644-0.129 1.347-0.032 2.016-0.2 0.28-0.07 0.695-0.116 0.984-0.116 0.53 0 0.479-0.247 0.479-0.7-1.333 0.496-2.939 0.349-4.351 0.55-1.522 0.218-2.93 1.104-4.249 1.75 0.2 0.067 0.4 0.133 0.6 0.2"/>
<path id="path27" fill="#B2B2B2" d="m131.7 56.779c1.329-0.797 2.721-1.174 4.176-1.659 0.704-0.234 1.396-0.495 2.123-0.641 0.658-0.132 1.514-0.286 2.1-0.6 0.034 0.2 0.067 0.4 0.102 0.6-1.622 0.27-3.122 0.84-4.676 1.358-0.708 0.236-1.398 0.551-2.091 0.828-0.48 0.193-1.55 0.894-1.73 0.114"/>
<path id="path29" fill="#AB0805" d="m59.5 56.279c0.839-1.886 2.093-3.44 3.23-5.144 1.122-1.682 2.901-2.822 4.696-3.719 1.728-0.864 3.663-1.993 5.659-1.811 2.063 0.188 3.93 0.899 5.688 1.916 1.182 0.684 2.141 1.33 3.171 2.223 0.872 0.755 1.491 1.86 2.077 2.838 0.606 1.009 0.87 2.241 1.171 3.368 0.25 0.938 0.473 2.262 0.408 3.229-8.7-0.967-17.4-1.933-26.1-2.9"/>
<path id="path31" fill="#F7C6ED" d="m85.6 65.879c1.427-1.666 1.15-4.131 0.418-6.085-0.188-0.501-0.252-1.401-0.883-1.425-0.764-0.03-1.528-0.06-2.292-0.089-5.906-0.23-11.813-0.46-17.719-0.69-0.93-0.036-1.859-0.072-2.788-0.108-0.171-0.007-0.642 1.211-0.72 1.367-0.37 0.74-0.74 1.48-1.11 2.221-0.281 0.563-0.642 1.083-0.928 1.655-0.294 0.589-0.39 1.325-0.578 1.956-0.34 1.145-0.431 2.318-1.1 3.3-0.233 0.585-1.289 1.987-2 2.1-0.627 0.391 0.231 1.044 0.622 1.174 0.296 0.098 0.6 0.14 0.878 0.226 0.37 0.114 0.399-0.139 0.399 0.377 0 0.635-0.356 1.049-0.484 1.56-0.063 0.253 1.643 0.594 1.885 0.563 0.224 0.085-0.705 1.1-0.95 1.1-0.149 0-0.37 0.46-0.172 0.526 0.221 0.074 0.722 0.454 0.722 0.724 0 0.556-0.088 1.203 0 1.75 0.043 0.269 0.198 0.569 0.301 0.7 0.37 0.472 0.686 0.421 1.2 0.55 0.435 0.108 0.794-0.05 1.222-0.05 0.219 0 0.378-0.162 0.578-0.2 0.224-0.042 0.472 0.023 0.699 0 0.731-0.074 1.591-0.072 2.3-0.25 1.672-0.419 2.836 3.022 3.377 4.105 0.099 0.198 0.563 1.973 0.751 1.939 1.086-0.192 1.979-0.415 3.004-0.813 1.542-0.6 3.133-1.839 4.374-2.924 1.422-1.245 2.718-2.585 3.982-3.989 0.295-0.328 0.587-0.657 0.875-0.993 0.415-0.485 0.442-0.566 0.087-1.098-0.385-0.577-0.352-1.318-0.352-1.978 0.612 0.391 1.644-0.222 2.2-0.5-0.329-0.416-0.994-0.646-0.9-1.3 0.542 0.271 0.906 0.5 1.5 0.3 0.021-0.032-0.5-0.948-0.5-1.3 0.001-0.732 0.254-0.854 0.737-1.337 0.48-0.48 0.938-1.052 1.192-1.687 0.108-0.271 0.412-1.167 0.171-1.276 0.002-0.034 0.002-0.068 0.002-0.101"/>
<path id="path33" fill="#fff" d="m59.7 67.079c0.035 0.599 0.429 0.99 0.6 1.5 0.736-0.351 1.715-0.3 2.4-0.8-0.504-0.251-1.036-0.615-1.6-0.7-0.444-0.067-0.949 0-1.4 0"/>
<path id="path35" fill="#6AFFFF" d="m60.6 68.279c0.438 0.483 1.54-1.699 0-1.7-1.15 0-0.959 2.019 0 1.8v-0.1"/>
<path id="path37" d="m60.4 68.079c0.704 0.084 0.523-0.981 0.1-1.1-0.462 0.309-0.357 0.862 0 1.1h-0.1"/>
<path id="path39" fill="#E6AEDA" d="m59.8 65.879c-0.193 0.436-0.3 0.915-0.3 1.4 1.068-0.346 2.24 0.122 3.2 0.5h0.1c0.179-0.127-0.856-1.278-1.162-1.431-0.585-0.291-1.174-0.512-1.838-0.469"/>
<path id="path41" fill="#D09A08" d="m60.1 64.879c0.467 0.046 0.917-0.153 1.399-0.1 0.47 0.051 0.983 0.142 1.4 0.35 0.467 0.234 0.798 0.615 1.223 0.898 0.299 0.2 0.656 0.674 0.978 0.751-0.412-0.743-1.34-1.621-2.101-2-0.397-0.198-0.957-0.346-1.399-0.4-0.516-0.063-0.994 0.146-1.5 0.1v0.5-0.099"/>
<path id="path43" fill="#AB0805" d="m75 47.479c2.069 0.296 3.8-1.635 3.8-3.638 0-1.99-1.596-3.762-3.637-3.762-2.027 0-3.863 1.529-3.863 3.637 0 2.1 1.587 3.863 3.738 3.863h0.063c-0.034-0.033-0.068-0.067-0.101-0.1"/>
<path id="path45" fill="#AB0805" d="m73.7 40.179c0.609-0.115 1.087-0.598 1.678-0.716 0.597-0.12 1.177-0.292 1.723-0.484-0.407 0.204-2.615 1.008-2.7 1.4 0.557-0.153 1.372-0.3 1.95-0.3 0.613 0 1.586-0.351 2.149 0 0.011 0.004 0.151-0.018 0.076 0.009-0.558 0.197-1.117 0.394-1.675 0.591 0.268 0.248 0.836-0.054 1.222 0.074 0.491 0.163 1.099 0.174 1.578 0.326-0.5 0.066-1 0.133-1.5 0.2l0.9 0.6c-0.992 0.142-1.736-0.274-2.681-0.616-0.489-0.177-2.562-0.612-2.72-1.084"/>
<path id="path47" fill="#E94606" d="m71 46.579c-1.29-0.134-3.089 0.988-3.95 1.85-0.55 0.551-1.249 0.948-1.8 1.5-0.252 0.253-0.542 0.563-0.75 0.85-0.097 0.134-0.439 0.925-0.5 0.7-0.086 0.432-0.225 0.875 0.15 1.25 0.307 0.307 0.729 0.464 1.149 0.25 0.479-0.244 0.927-0.984 1.301-1.4 0.492-0.548 0.904-0.965 1.5-1.4 0.889-0.648 2.188-1.7 3.35-1.7 0.994 0 0.753-2.069-0.35-1.9h-0.1"/>
<path id="path49" fill="#E94606" d="m70.5 49.779c-0.089 0.217-0.471 0.572-0.65 0.75-0.225 0.224-0.411 0.561-0.55 0.85-0.296 0.612-0.247 0.955 0.25 1.45 0.362 0.36 1.164 0.226 1.4-0.25 0.162-0.325 0.376-0.845 0.65-1 1.022-0.868 0.046-2.247-1.101-1.7 0.001-0.033 0.001-0.067 0.001-0.1"/>
<path id="path51" fill="#E94606" d="m82 53.279c-0.01 0.335 0.4 0.407 0.4 0.75 0 0.316 0.046 0.54 0.3 0.75 0.526 0.435 1.156 0.037 1.2-0.6 0.043-0.634-0.429-1.843-1.101-1.9-0.674-0.058-1.09 0.49-0.8 1.1 0.001-0.033 0.001-0.067 0.001-0.1"/>
<path id="path53" fill="#E94606" d="m72.8 41.679c-0.17 0.216-0.431 0.282-0.6 0.5-0.158 0.204-0.243 0.63-0.326 0.877-0.144 0.43 0.023 1.066 0.425 1.322 0.166 0.105 0.9 0.18 0.9-0.15 0-0.154 0.2-0.209 0.2-0.4 0-0.166 0.022-0.538-0.101-0.35 0.057 0.062 0.147 0.023 0.101 0.2-0.231-0.213 0.036-0.621 0.2-0.7h-0.099c0.115 0.24 0.643-0.559 0.35-0.85-0.376-0.373-0.441-0.449-1.05-0.449"/>
<path id="path55" fill="#D9DBD1" d="m68.4 82.879c-0.734 0.419-1.839 1.151-1.585 2.163 0.087 0.346 0.385 0.852 0.385 1.188 0 0.328-0.547 0.975-0.682 1.335-0.32 0.853-0.083 2.073 0.376 2.839 0.229 0.382 0.44 0.809 0.758 1.127 0.407 0.409 1.001 0.337 1.564 0.403 0.854 0.101 2.002-0.312 2.728-0.773 0.989-0.63 1.9-1.22 2.782-1.987 1.704-1.481 3.332-3.02 4.854-4.688 1.467-1.606 2.813-3.319 4.206-4.99 0.331-0.398 0.601-0.865 0.896-1.291 0.077-0.112 0.41-0.304 0.418-0.426 0.011-0.165-0.469-0.624-0.575-0.766-0.553-0.736-1.303-1.593-2.125-2.034-1.041-0.558-1.18 0.717-1.846 1.335-0.898 0.833-1.796 1.571-2.777 2.307-1.615 1.212-3.636 2.121-5.503 2.868-1.283 0.513-2.583 0.922-3.874 1.39"/>
<path id="path57" fill="#B2B2B2" d="m83 74.879c1.386-4.154 3.842-7.522 7.162-10.367 3.135-2.687 7.514-4.276 11.456-5.337 2.167-0.584 4.3-0.993 6.519-1.326 1.01-0.152 2.018-0.26 3.021-0.461 1.033-0.207 2.051-0.485 3.079-0.79 3.913-1.16 7.849-3.692 10.311-6.981 0.133-0.177 0.258-0.338 0.354-0.538 1.594 1.69 3.187 3.381 4.78 5.072 0.938 0.995 1.874 1.989 2.812 2.983 0.193 0.206 0.387 0.411 0.581 0.616 0.078 0.083-0.738 1.022-0.839 1.153-1.261 1.64-2.944 2.938-4.51 4.262-0.821 0.695-1.679 1.335-2.549 1.968-0.716 0.521-1.474 1.185-2.282 1.535-4.036 1.749-8.262 3.057-12.72 2.809-2.024-0.113-3.944-0.533-5.935-0.781-1.078-0.135-2.305-0.475-3.391-0.415-1.178 0.065-2.356 0.131-3.534 0.196-0.596 0.033-1.265 0.324-1.841 0.473-0.5 0.129-1.021 0.222-1.499 0.424-1.401 0.593-2.703 1.191-4.025 1.938-2.14 1.209-4.231 3.182-5.548 5.266-0.328-0.424-0.908-1.577-1.403-1.699"/>
<path id="path59" fill="#E6E6E6" d="m108 66.779c1.973 0.987 3.991 1.22 6.16 0.826 1.943-0.354 4.122-0.955 5.823-1.976 1.764-1.058 3.523-2.213 4.806-3.864 0.651-0.837 1.388-1.66 1.912-2.586 0.224-0.396 0.233-1.2-0.45-1.2-0.764 0-0.943 0.658-1.376 1.234-0.643 0.856-1.321 1.78-2.128 2.487-1.615 1.416-3.121 2.632-5.161 3.396-1.911 0.716-4.186 1.37-6.24 1.143-0.49-0.054-1.025-0.104-1.489-0.277-0.323-0.121-0.868-0.483-1.207-0.483-0.436 0-0.953 0.409-0.851 0.9 0.05 0.188 0.37 0.329 0.21 0.4"/>
<path id="path61" fill="#E6E6E6" d="m117.8 61.679c1.698-1.132 3.362-2.27 5.248-3.078 0.521-0.224 1.81-0.515 1.952-1.123 0.087-0.37-0.499-1.295-0.85-0.95-0.222 0.218-0.814 0.292-1.131 0.427-0.503 0.216-1.02 0.408-1.495 0.68-0.842 0.481-1.683 0.962-2.524 1.443-0.463 0.264-0.846 0.521-1.255 0.863-0.188 0.158-0.946 0.38-0.946 0.687 0 0.475-0.307 0.988 0.401 1.15 0.2 0.045 0.47 0.031 0.61-0.099"/>
<path id="path63" fill="#FCF2D6" d="m68.5 86.879c1.936-0.429 3.801-1.252 5.344-2.537 0.735-0.612 1.526-1.136 2.206-1.813 0.375-0.374-0.199-1-0.55-1.05-0.668-0.094-1.778 0.804-2.15 1.3-0.52 0.694-1.562 1.345-2.35 1.7-1.098 0.494-3.5 0.553-3.5 2 0 0.37 0.724 0.638 1 0.4"/>
<path id="path65" fill="#FCF2D6" d="m72.5 88.079c0.731-0.366 1.535-0.84 2.05-1.35 0.229-0.228-0.069-0.701-0.25-0.85-0.326-0.268-0.424-0.1-0.75-0.1-0.28 0-0.906 0.455-1.1 0.65-0.316 0.317-0.783 0.243-0.95 0.75-0.186 0.566 0.527 1.214 1 0.9"/>
<path id="path67" fill="#AB0805" d="m134.5 63.579c1.041-0.868 2.303-1.367 3.639-1.59 0.123-0.021 1.454-0.148 1.467-0.08 0.127 0.691 0.255 1.381 0.383 2.072 0.193 1.051 0.388 2.103 0.582 3.154 0.106 0.577 0.452 1.132-0.107 1.413-1.095 0.549-2.29 0.952-3.363 1.531-0.429-1.114-0.856-2.228-1.285-3.342-0.296-0.77-0.593-1.54-0.889-2.31-0.1-0.248-0.19-0.773-0.43-0.848"/>
<path id="path69" fill="#AB0805" d="m22.4 98.379c-0.502 0.289-1.151 0.159-1.7 0.2-0.513 0.038-1.056 0.125-1.563 0.21-0.544 0.091-1.18 0.075-1.7 0.206-0.788 0.197-0.638 0.379-0.638 1.186 0 1.188 0.2 2.284 0.316 3.456 0.113 1.138 0.745 2.427 0.684 3.543 1.314-0.291 2.654-0.301 4-0.301 0.638-0.175 0.303-3.517 0.369-4.183 0.054-0.54 0.526-4.199 0.232-4.321"/>
<path id="path71" fill="#99B2B9" d="m111.8 199.18c-4.177 0.504-8.355 1.008-12.532 1.513-1.613 0.194-3.227 0.389-4.84 0.584-1.767 0.213-1.526-1.481-1.526-2.697-0.726 0.099-1.452 0.198-2.178 0.297 0.078-0.011 0.078 1.254 0.078 1.407 0 0.557-0.165 1.274-0.6 1.496-0.451 0.23-1.256 0.357-1.758 0.42-1.354 0.169-2.676 0.369-3.966-0.15-0.538-0.216-0.575-0.528-0.575-1.092 0-0.865 0.989-0.784 1.6-0.878-0.167-0.434-0.333-0.866-0.5-1.3-0.228 0.177-0.783 0.17-1.1 0.25-0.467 0.117-0.908 0.403-1.338 0.619-0.747 0.375-0.797 1.438-0.563 2.131 0.518 1.527 1.976 2.481 3.618 2.286 4.775-0.569 9.55-1.138 14.326-1.707 4.419-0.526 8.838-1.053 13.257-1.579-0.172-0.77-0.618-1.341-1.401-1.5v-0.1"/>
<path id="path73" fill="#F3F6EA" d="m95.4 109.98c0.267 0.667 0.533 1.333 0.8 2 0.262-0.175 0.524-0.351 0.787-0.525 0.22-0.147-0.121-0.452-0.238-0.64-0.2-0.319-0.399-0.639-0.599-0.958-0.109-0.18-0.572 0.07-0.75 0.12"/>
<path id="path75" fill="#F3F6EA" d="m97.1 108.58c0.333 0.699 0.667 1.399 1 2.099 0.333-0.267 0.667-0.534 1-0.801-0.366-0.45-0.731-0.899-1.098-1.35-0.408-0.51-0.58 0.36-0.902 0.05"/>
<path id="path77" fill="#F3F6EA" d="m98.8 107.38l1.4 1.4c0.518-0.689 0.751-0.678 0.072-1.222-0.3-0.24-0.6-0.479-0.899-0.72-0.157-0.13-0.457 0.4-0.571 0.54"/>
<path id="path79" fill="#F3F6EA" d="m100.4 105.88c0.436 0.282 0.871 0.564 1.306 0.846 0.554 0.359 0.52 0.08 0.895-0.445-0.42-0.247-0.84-0.494-1.259-0.741-0.56-0.34-0.52-0.17-0.94 0.34"/>
<path id="path81" fill="#F3F6EA" d="m101.9 104.08c0.506 0.31 1.012 0.618 1.519 0.928 0.491 0.3 0.667-0.324 0.981-0.729-0.526-0.296-1.052-0.591-1.577-0.887-0.19-0.11-0.83 0.98-0.92 0.69"/>
<path id="path83" fill="#F3F6EA" d="m103.5 101.98c0.467 0.275 0.935 0.55 1.402 0.825 0.487 0.286 0.527-0.189 0.798-0.624-0.47-0.235-0.94-0.471-1.411-0.707-0.42-0.21-0.41 0.45-0.79 0.51"/>
<path id="path85" fill="#F3F6EA" d="m104.8 100.28l1.323 0.882c0.34 0.227 0.569-0.403 0.778-0.682-0.433-0.23-0.865-0.46-1.297-0.691-0.35-0.189-0.54 0.231-0.8 0.491"/>
<path id="path87" fill="#F3F6EA" d="m105.8 98.479c0.441 0.237 1.123 0.5 1.623 0.5 0.213 0 0.449 0.201 0.628 0.201 0.129 0 0.217-0.755 0.25-0.901-0.523-0.095-1.047-0.19-1.571-0.286-0.68-0.123-0.62-0.137-0.93 0.486"/>
<path id="path89" fill="#F3F6EA" d="m106.3 96.779c0.71 0.025 1.42 0.051 2.13 0.076 0.098 0.003 0.593 0.092 0.67 0.024 0.124-0.109 0.082-0.82 0.1-1-0.676 0.023-1.353 0.047-2.029 0.07-0.89 0.03-0.87-0.087-0.87 0.83"/>
<path id="path91" fill="#F3F6EA" d="m106.8 94.779c0.68-0.078 1.36-0.157 2.04-0.235 0.754-0.087 0.611-0.311 0.761-1.065-0.653 0.117-1.306 0.233-1.959 0.35-0.86 0.153-0.84 0.053-0.84 0.95"/>
<path id="path93" fill="#F3F6EA" d="m107.5 92.279c0.509-0.066 1.018-0.133 1.526-0.199 0.71-0.092 0.753 0.014 0.875-0.701-0.833 0.033-1.667 0.067-2.501 0.1 0.06 0.25 0.28 0.703 0.1 0.8"/>
<path id="path95" fill="#F3F6EA" d="m107.4 90.279c0.896-0.297 1.756-0.6 2.7-0.6-0.146 0.388-0.164 0.677-0.5 0.8-0.22 0.08-0.657 0.059-0.9 0.1-0.298 0.05-0.599 0.072-0.9 0.1-0.44 0.041-0.4 0.215-0.4-0.4"/>
<path id="path97" fill="#AB0805" d="m99.1 113.38c0.739 2.915 1.477 5.831 2.216 8.746 0.419 1.654 0.838 3.309 1.257 4.964l0.225 0.888c0.023 0.09 1.885 0.004 2.102 0.004-0.974-2.495-1.948-4.991-2.922-7.486-0.656-1.68-1.312-3.359-1.967-5.039-0.142-0.36-0.523-1.98-0.91-2.07"/>
<path id="path99" fill="#AB0805" d="m97.5 114.08c0.27 2.679-0.135 5.356-0.402 8.022-0.137 1.367-0.264 2.736-0.458 4.097-0.09 0.632-0.065 1.459-0.266 2.058-0.153 0.457 1.04 0.891 1.425 1.121-0.034-2.566-0.067-5.133-0.101-7.699-0.023-1.745-0.045-3.49-0.068-5.235-0.007-0.51 0.24-1.96-0.13-2.36"/>
<path id="path101" fill="#AB0805" d="m109.8 125.38c-0.916-2.532-2.215-4.957-3.651-7.233-1.421-2.252-2.771-4.55-4.247-6.767 3.466 4.667 6.932 9.333 10.398 14h-2.5"/>
<path id="path103" fill="#AB0805" d="m114.6 121.98c-1.256-2.513-3.282-4.7-5.074-6.851-1.804-2.164-3.645-4.349-5.626-6.351 2.577 1.718 4.722 3.972 6.965 6.093 2.194 2.075 4.192 4.374 6.334 6.507-0.83 0.2-1.73 0.55-2.59 0.6"/>
<path id="path105" fill="#AB0805" d="m119.7 116.58c-2.143-1.835-4.306-3.605-6.534-5.339-1.065-0.829-2.168-1.611-3.247-2.422-1.035-0.778-2.486-1.459-3.319-2.441 2.891 0.965 5.455 2.708 8.032 4.302 2.562 1.584 5.152 3.3 7.568 5.099-0.37 0.13-2.44 0.98-2.5 0.8"/>
<path id="path107" fill="#AB0805" d="m123.8 111.98c-2.643-1.469-5.377-2.69-8.08-4.041-2.587-1.293-5.345-2.242-7.92-3.561 3.176 0.458 6.147 1.669 9.15 2.752 3.004 1.082 6.095 2.11 8.95 3.549-0.7 0.43-1.4 0.87-2.1 1.3"/>
<path id="path109" fill="#AB0805" d="m129.1 101.28c-3.198 0-6.434-0.199-9.623-0.435-3.082-0.229-6.286-0.765-9.376-0.664 3.621 0.143 7.214 0.032 10.834-0.099 3.394-0.123 6.764-0.603 10.165-0.603-0.511 0.518-1.631 1.146-1.898 1.8h-0.1"/>
<path id="path111" fill="#AB0805" d="m130.4 95.579l-18.999 1.2c3.556-0.418 7.103-0.983 10.652-1.473 1.728-0.238 3.453-0.501 5.184-0.719 0.952-0.119 1.9-0.244 2.85-0.386 0.816-0.123 1.731-0.067 2.513-0.322-0.38 0.197-2.01 1.829-2.19 1.7"/>
<path id="path113" fill="#AB0805" d="m129.8 89.779c-5.466 1.133-10.933 2.267-16.398 3.4 5.666-1.6 11.333-3.2 16.999-4.8-0.2 0.467-0.4 0.933-0.6 1.4"/>
<path id="path115" fill="#AB0805" d="m130.5 84.279c-2.739 1.521-5.78 2.226-8.732 3.211-2.731 0.911-5.568 1.708-8.366 2.389 3.203-0.305 6.309-0.897 9.398-1.8 1.508-0.44 3.003-0.926 4.5-1.4 0.758-0.24 1.533-0.442 2.264-0.756 0.675-0.29 1.792-0.473 2.337-0.944-0.41-0.221-0.94-0.655-1.4-0.7"/>
<path id="path117" fill="#B2B2B2" d="m94.555 20.8l1.902 1.269c0.777 0.518 0.871 0.404 0.398 1.231-0.734-0.467-1.467-0.933-2.201-1.4v1.59c0 0.541 0.262 1.21-0.354 1.21-0.114 0-0.545 0.081-0.545-0.065v-2.735c-0.733 0.467-1.467 0.933-2.2 1.4-0.437-0.764-0.447-0.669 0.274-1.141 0.638-0.417 1.275-0.834 1.913-1.25 0.172-0.112 0.013-1.599 0.013-1.809v-2.2c-0.555 0.317-1.11 0.634-1.666 0.952-0.404 0.231-1.597 0.64-1.834 1.048-0.249 0.427-0.053 1.627-0.069 2.119-0.01 0.322-0.021 0.644-0.031 0.965-0.001 0.051-0.795 0.104-0.9 0.116 0.067-0.9 0.133-1.8 0.2-2.7-0.583 0.326-1.166 0.653-1.748 0.979-0.798 0.448-0.707 0.482-1.25-0.279 0.866-0.5 1.732-1 2.599-1.5l-2.499-1.2c0.633-0.633 0.563-0.618 1.353-0.238 0.458 0.221 1.438 0.957 1.947 0.938 0.446-0.017 1.289-0.773 1.666-1 0.611-0.367 1.223-0.733 1.834-1.101-1.163-0.665-2.326-1.329-3.489-1.994-0.19-0.108-1.582 0.809-1.794 0.919-0.301 0.156-0.602 0.312-0.902 0.467-0.065 0.034-0.538-0.516-0.614-0.592 0.833-0.433 1.666-0.867 2.499-1.3-0.866-0.467-1.732-0.933-2.599-1.4 0.483-0.676 0.389-0.762 1.098-0.365 0.633 0.355 1.267 0.71 1.901 1.065-0.067-0.9-0.133-1.8-0.2-2.7 0.924 0.103 0.896 0.002 0.925 0.904 0.018 0.536-0.195 1.833 0.075 2.296 0.215 0.371 1.3 0.743 1.666 0.952 0.611 0.35 1.223 0.699 1.834 1.048v-2c0-0.442 0.224-1.609 0-2-0.253-0.442-1.353-0.884-1.778-1.162-0.27-0.176-0.54-0.353-0.81-0.529-0.04-0.026 0.341-0.717 0.387-0.809 0.733 0.5 1.467 1 2.2 1.5v-1.647c0-0.544-0.268-1.253 0.354-1.253 0.118 0 0.545-0.083 0.545 0.067v2.833c0.734-0.5 1.467-1 2.201-1.5 0.414 0.829 0.479 0.749-0.275 1.241-0.638 0.417-1.275 0.833-1.913 1.25-0.171 0.112-0.013 1.599-0.013 1.809v2.2c0.555-0.317 1.11-0.634 1.666-0.952 0.404-0.231 1.597-0.64 1.834-1.048 0.249-0.427 0.053-1.627 0.069-2.119 0.01-0.322 0.021-0.644 0.031-0.965 0.001-0.051 0.795-0.104 0.9-0.116-0.066 0.9-0.133 1.8-0.199 2.7 0.583-0.326 1.166-0.653 1.749-0.979 0.78-0.437 0.7-0.51 1.152 0.279-0.833 0.467-1.667 0.933-2.5 1.4 0.8 0.433 1.6 0.867 2.399 1.3-0.61 0.732-0.586 0.556-1.417 0.125-0.212-0.11-1.604-1.027-1.794-0.919-1.163 0.665-2.326 1.33-3.489 1.994l3.489 2.094c0.188 0.113 1.579-0.749 1.794-0.853 0.836-0.402 0.813-0.567 1.417 0.159-0.8 0.4-1.6 0.8-2.399 1.2 0.473 0.284 0.947 0.568 1.42 0.852 0.426 0.255 1.208 0.424 0.922 0.923-0.364 0.636-0.55 0.252-1.156-0.087-0.529-0.296-1.058-0.592-1.587-0.889 0.066 0.9 0.133 1.8 0.199 2.7-0.924-0.103-0.896-0.002-0.925-0.904-0.018-0.536 0.195-1.833-0.075-2.296-0.215-0.371-1.3-0.743-1.666-0.952-0.611-0.35-1.223-0.699-1.834-1.048 0 0.573 0.268 3.876-0.1 4 0.013-0.031 0.013-0.065 0.013-0.098"/>
<path id="path119" fill="#B2B2B2" d="m94.055 5.8c-0.532 0.267-1.006 0.495-1 1.2 0.005 0.697 0.533 1.1 1.2 1.1 0.656 0 1-0.62 1-1.2 0.001-0.737-0.635-0.912-1.2-1.1"/>
<path id="path121" fill="#B2B2B2" d="m85.255 10.9c-0.878 1.074 1.12 2.439 1.901 1.1 0.737-1.263-1.037-2.237-1.901-1.1"/>
<path id="path123" fill="#B2B2B2" d="m85.056 21.1c0.254 0.311 1.151 0.95 1.55 0.55 0.432-0.434 0.918-0.974 0.55-1.65-0.242-0.445-1.047-0.679-1.5-0.45-0.671 0.339-0.776 1.027-0.5 1.65 0.035-0.144-0.046-0.052-0.1-0.1"/>
<path id="path125" fill="#B2B2B2" d="m93.956 26.3c1.503 0.192 1.531-2.27 0-2.2-0.689 0.032-1.1 0.551-1.1 1.2 0 0.445 0.91 1.33 1.1 1"/>
<path id="path127" fill="#B2B2B2" d="m102.86 21.2c0.433-0.371 0.118-1.233-0.301-1.5-0.666-0.425-1.237 0.138-1.649 0.55-0.443 0.443 0.181 1.415 0.649 1.55 0.216 0.063 0.569 0.105 0.801 0 0.193-0.087 0.651-0.427 0.5-0.5v-0.1"/>
<path id="path129" fill="#B2B2B2" d="m102.96 11c-0.246-0.2-0.306-0.413-0.6-0.5-0.258-0.076-0.669-0.017-0.9 0.1-0.614 0.31-0.686 1.039-0.4 1.6 0.63 1.248 2.67 0.126 1.9-1.2"/>
<path id="path131" fill="#B2B2B2" d="m94.256 10.2c0.399 1.33 0.798 2.659 1.197 3.988 0.02 0.067 3.612-0.801 4.003-0.889-0.444 0.476-0.889 0.952-1.333 1.427-0.231 0.248-1.468 1.232-1.468 1.573 0 0.309 1.125 1.205 1.333 1.427 0.49 0.524 0.979 1.048 1.468 1.573-0.634-0.143-1.269-0.286-1.903-0.428-0.331-0.075-1.801-0.644-2.097-0.472-0.268 0.156-0.481 1.563-0.571 1.855-0.209 0.682-0.419 1.363-0.629 2.044-0.19-0.619-0.381-1.237-0.571-1.855-0.1-0.325-0.333-1.873-0.629-2.044-0.268-0.156-1.604 0.361-1.903 0.428-0.699 0.157-1.398 0.314-2.097 0.472 0.444-0.476 0.889-0.952 1.333-1.427 0.231-0.248 1.468-1.232 1.468-1.573 0-0.309-1.125-1.205-1.333-1.427-0.49-0.524-0.979-1.048-1.468-1.573 0.634 0.143 1.269 0.286 1.903 0.428 0.331 0.075 1.801 0.644 2.097 0.472 0.268-0.156 0.481-1.563 0.571-1.856 0.209-0.682 0.419-1.363 0.629-2.044v-0.099"/>
<path id="path133" fill="#B2B2B2" d="m94.256 12.4c0.107 0.369 0.215 0.737 0.322 1.105 0.06 0.203 0.195 1.186 0.378 1.294 0.156 0.092 0.931-0.194 1.105-0.23 0.432-0.09 0.863-0.18 1.295-0.27-0.246 0.276-0.491 0.553-0.737 0.829-0.141 0.159-0.863 0.757-0.863 0.971 0 0.182 0.618 0.695 0.737 0.829 0.288 0.323 0.576 0.647 0.863 0.971-0.369-0.092-0.737-0.184-1.105-0.276-0.2-0.05-1.115-0.426-1.295-0.324-0.153 0.087-0.274 0.939-0.322 1.105-0.126 0.432-0.252 0.863-0.378 1.295-0.107-0.369-0.215-0.737-0.322-1.105-0.058-0.198-0.198-1.193-0.378-1.295-0.153-0.087-0.937 0.234-1.105 0.276-0.432 0.108-0.863 0.216-1.295 0.324 0.261-0.276 0.522-0.553 0.784-0.829 0.143-0.151 0.917-0.762 0.917-0.971 0-0.178-0.663-0.702-0.784-0.829-0.306-0.324-0.612-0.647-0.917-0.971 0.369 0.077 0.737 0.153 1.105 0.23 0.205 0.042 1.114 0.378 1.295 0.27 0.154-0.093 0.271-0.891 0.322-1.059 0.126-0.414 0.252-0.827 0.378-1.241v-0.099"/>
<path id="path135" fill="#B2B2B2" d="m91.256 9.9c0.974 0.232 1.244-1.716 0-1.7-1.108 0.015-1.004 1.826 0 1.7"/>
<path id="path137" fill="#B2B2B2" d="m90.055 10.9c0.851 0.102 0.525-2.053-0.699-1.4-1.006 0.536-0.072 2.1 0.799 1.4h-0.1"/>
<path id="path139" fill="#B2B2B2" d="m87.156 17.7c0.486-0.088 0.613-0.723 0.399-1.1-0.098-0.174-0.337-0.345-0.499-0.4-0.362-0.123-0.381 0.1-0.751 0.1-0.438 0-0.394 0.954-0.199 1.15 0.184 0.185 0.282 0.35 0.549 0.35 0.17 0 0.702 0.034 0.501-0.1"/>
<path id="path141" fill="#B2B2B2" d="m91.555 23.8c0.536 0.064 0.601-0.782 0.4-1.1-0.24-0.381-0.805-0.547-1.2-0.3-0.973 0.608-0.087 1.869 0.899 1.5-0.032-0.033-0.065-0.067-0.099-0.1"/>
<path id="path143" fill="#B2B2B2" d="m99.256 22.9c1.154-0.313-0.039-2.165-0.85-1.35-0.297 0.298-0.595 0.81-0.201 1.2 0.196 0.193 0.882 0.644 1.051 0.15"/>
<path id="path145" fill="#B2B2B2" d="m102.16 15.9c1.077-0.444 0.244-2.002-0.699-1.5-1.073 0.572 0.057 2.201 0.8 1.5h-0.1"/>
<path id="path147" fill="#B2B2B2" d="m87.555 15.6c0.852-0.704-0.854-1.994-1.449-0.8-0.14 0.281-0.009 1.1 0.4 1.1 0.195 0 0.508 0.244 0.699 0.05 0.115-0.116 0.534-0.238 0.35-0.35"/>
<path id="path149" fill="#B2B2B2" d="m90.456 21.6c-0.35-0.181-0.617-0.445-1.1-0.2-0.237 0.12-0.325 0.213-0.4 0.5-0.074 0.28 0.1 0.393 0.1 0.65-0.001 0.695 2.084 0.354 1.4-0.95"/>
<path id="path151" fill="#B2B2B2" d="m97.155 22.2c-0.316 0.279-0.799 0.357-0.799 0.9 0 0.47 0.496 0.9 0.95 0.9 1.015 0 1.024-1.868-0.151-1.7v-0.1"/>
<path id="path153" fill="#B2B2B2" d="m101.06 16.5c0 0.472-0.083 0.93 0.4 1.2 0.511 0.286 0.836-0.035 1.149-0.351 0.24-0.241-0.006-1.149-0.4-1.149-0.154 0-0.425-0.226-0.6-0.05-0.09 0.083-0.47 0.302-0.55 0.35"/>
<path id="path155" fill="#B2B2B2" d="m97.956 10.1c0.206 0.497 0.771 0.64 1.199 0.4 0.587-0.328 0.301-0.747 0.301-1.2 0-0.202-0.419-0.218-0.55-0.35-0.18-0.181-0.433 0.15-0.6 0.15-0.53 0-0.289 1.042-0.35 1.1v-0.1"/>
<path id="path157" fill="#B2B2B2" d="m96.356 9.4c0.413 0.417 0.7 0.604 1.199 0.3 0.396-0.242 0.551-0.652 0.301-1.1-0.547-0.978-1.963-0.073-1.5 0.8"/>
<path id="path159" fill="#B2B2B2" d="m31.156 150.7c0.661 0.297 1.321 0.594 1.982 0.89 0.301 0.136 0.602 0.271 0.903 0.405 0.05 0.022-0.161 0.711-0.185 0.807-0.833-0.367-1.667-0.734-2.5-1.102 0.117 0.653 0.233 1.307 0.35 1.96 0.158 0.884 0.237 0.82-0.65 1.04-0.167-0.933-0.333-1.866-0.5-2.799-0.667 0.6-1.333 1.199-2 1.799-0.439-0.768-0.416-0.683 0.214-1.284 0.376-0.358 1.419-1.021 1.587-1.515 0.146-0.431-0.271-1.51-0.35-1.949-0.117-0.65-0.233-1.301-0.35-1.95-0.5 0.417-1 0.833-1.5 1.25-0.339 0.282-1.337 0.832-1.5 1.25-0.186 0.479 0.156 1.609 0.205 2.118 0.031 0.321 0.062 0.644 0.093 0.965 0.005 0.05-0.704 0.193-0.798 0.217-0.1-0.9-0.2-1.801-0.3-2.701-0.513 0.443-1.026 0.887-1.539 1.33-0.696 0.602-0.599 0.634-1.262-0.029 0.767-0.633 1.534-1.267 2.301-1.899-0.9-0.268-1.8-0.534-2.7-0.802 0.432-0.754 0.36-0.71 1.177-0.465 0.516 0.154 1.695 0.776 2.222 0.666 0.419-0.088 1.115-1.004 1.427-1.285 0.524-0.472 1.048-0.944 1.573-1.416-0.617-0.233-1.233-0.466-1.85-0.699-0.406-0.153-1.415-0.771-1.85-0.699-0.5 0.083-1.308 0.993-1.709 1.298-0.774 0.588-0.691 0.7-1.393 0.001 0.734-0.533 1.467-1.065 2.201-1.599-0.933-0.333-1.867-0.667-2.8-1 0.292-0.783 0.175-0.848 0.946-0.563 0.685 0.254 1.37 0.507 2.054 0.761-0.2-0.899-0.4-1.799-0.601-2.698 0.917 0 0.88-0.088 1.082 0.777 0.171 0.736 0.343 1.472 0.515 2.207 0.047 0.202 1.471 0.57 1.669 0.646 0.678 0.257 1.356 0.513 2.035 0.77-0.233-1.329-0.465-2.658-0.698-3.988-0.038-0.218-1.629-0.71-1.851-0.805-0.312-0.134-0.624-0.268-0.935-0.401-0.05-0.021 0.16-0.71 0.184-0.806 0.833 0.367 1.667 0.733 2.5 1.101-0.167-0.967-0.333-1.935-0.5-2.901 0.799-0.099 0.781-0.208 0.92 0.571 0.127 0.71 0.253 1.42 0.38 2.13 0.667-0.6 1.333-1.2 2-1.8 0.494 0.742 0.322 0.675-0.297 1.295-0.364 0.365-1.338 1.014-1.503 1.505-0.146 0.433 0.271 1.508 0.35 1.949 0.117 0.649 0.233 1.3 0.35 1.949 0.517-0.417 1.034-0.833 1.551-1.25 0.337-0.271 1.396-0.838 1.551-1.25 0.177-0.471-0.209-1.623-0.274-2.119-0.042-0.321-0.083-0.644-0.125-0.965-0.008-0.061 0.7-0.278 0.797-0.314 0.1 0.9 0.201 1.8 0.301 2.7 0.417-0.341 0.833-0.683 1.249-1.023 0.253-0.207 0.506-0.414 0.758-0.621 0.255-0.209 0.22-0.123 0.442 0.144 0.404 0.486-0.115 0.615-0.553 0.994-0.465 0.401-0.931 0.804-1.396 1.205 0.867 0.268 1.734 0.534 2.601 0.802-0.368 0.857-0.377 0.675-1.249 0.414-0.484-0.146-1.552-0.71-2.051-0.614-0.432 0.083-1.145 0.959-1.476 1.237l-1.626 1.362 1.809 0.714c0.437 0.172 1.521 0.858 1.992 0.786 0.493-0.076 1.314-0.998 1.709-1.299 0.773-0.587 0.691-0.7 1.392-0.002-0.733 0.533-1.467 1.066-2.2 1.6 0.629 0.233 1.259 0.467 1.889 0.699 0.845 0.313 0.833 0.213 0.611 1.103-0.9-0.333-1.801-0.667-2.701-1 0.201 0.866 0.401 1.732 0.602 2.599-0.868 0.108-0.788 0.149-1.008-0.678-0.196-0.736-0.393-1.472-0.589-2.207-0.056-0.212-1.462-0.566-1.669-0.645-0.678-0.257-1.356-0.514-2.034-0.77 0.091 0.51 0.865 3.79 0.598 3.89"/>
<path id="path161" fill="#B2B2B2" d="m28.055 135.9c-0.131 0.337-1.148 0.691-0.85 1.3 0.181 0.37 0.618 1.372 1.25 1.05 0.638-0.325 1-0.451 1-1.25 0-0.722-0.689-0.999-1.3-0.999-0.033-0.03-0.066-0.07-0.1-0.1"/>
<path id="path163" fill="#B2B2B2" d="m20.156 142.5c0 0.626 0.052 1.208 0.7 1.5 0.532 0.239 1.5-0.086 1.5-0.801 0-0.744-0.081-0.991-0.8-1.35-0.629-0.31-1.081 0.39-1.4 0.65"/>
<path id="path165" fill="#B2B2B2" d="m21.856 152.6c0.447 0.572 1.04 0.531 1.6 0.251 0.629-0.314 0.483-1.075 0.25-1.551-0.332-0.676-1.048-0.498-1.55-0.249-0.768 0.38-0.436 1.095-0.199 1.648 0.033-0.14-0.042-0.06-0.101-0.1"/>
<path id="path167" fill="#B2B2B2" d="m31.555 156.2c1.4-0.051 1.085-2.473-0.399-2.198-1.742 0.32-0.529 2.85 0.399 2.2"/>
<path id="path169" fill="#B2B2B2" d="m39.356 149.6c0.522-0.402-0.121-1.273-0.602-1.4-0.688-0.182-1.183 0.277-1.449 0.801-0.233 0.457 0.209 1.4 0.75 1.4 0.332 0 1.774-0.25 1.301-0.8"/>
<path id="path171" fill="#B2B2B2" d="m37.755 139.6c-0.844-1.229-2.593 0.298-1.699 1.401 0.965 1.19 2.719-0.55 1.699-1.4"/>
<path id="path173" fill="#B2B2B2" d="m28.956 140.3c0.632 1.229 1.263 2.46 1.895 3.689 0.034 0.065 3.434-1.434 3.805-1.59-0.349 0.539-0.698 1.079-1.047 1.618-0.185 0.285-1.21 1.444-1.153 1.782 0.051 0.307 1.281 1.001 1.522 1.189 0.56 0.437 1.119 0.874 1.678 1.311-0.634-0.032-1.269-0.063-1.903-0.096-0.335-0.017-1.835-0.321-2.097-0.105-0.236 0.195-0.201 1.65-0.238 1.95-0.087 0.717-0.175 1.433-0.262 2.149-0.632-1.229-1.264-2.458-1.896-3.688-0.034-0.065-3.433 1.432-3.804 1.588 0.349-0.539 0.698-1.079 1.047-1.618 0.185-0.285 1.21-1.444 1.153-1.782-0.051-0.307-1.281-1.001-1.522-1.189-0.56-0.437-1.119-0.874-1.678-1.311 0.401 0.02 4.092 0.262 4.101 0.189 0.095-0.76 0.19-1.519 0.285-2.277 0.049-0.4 0.397-1.49 0.114-1.81"/>
<path id="path175" fill="#B2B2B2" d="m29.356 142.5c0.396 0.727 0.793 1.454 1.189 2.181 0.039 0.071 1.979-0.787 2.209-0.881-0.216 0.333-0.433 0.667-0.649 1-0.099 0.152-0.684 0.82-0.649 1 0.035 0.183 0.775 0.581 0.921 0.69 0.36 0.271 0.72 0.54 1.079 0.81-0.384-0.016-0.768-0.031-1.151-0.047-0.211-0.009-1.188-0.193-1.349-0.055-0.137 0.119-0.116 0.929-0.138 1.105-0.054 0.432-0.108 0.863-0.162 1.295-0.169-0.338-0.338-0.675-0.507-1.013-0.093-0.187-0.397-1.113-0.594-1.187-0.167-0.062-0.899 0.391-1.06 0.461-0.414 0.18-0.828 0.359-1.241 0.539 0.215-0.322 0.43-0.645 0.646-0.967 0.117-0.176 0.792-0.924 0.756-1.133-0.031-0.178-0.779-0.584-0.921-0.69-0.36-0.271-0.72-0.54-1.079-0.81 0.257 0.021 2.496 0.235 2.502 0.18 0.048-0.4 0.456-2.38 0.198-2.48"/>
<path id="path177" fill="#B2B2B2" d="m25.956 140.4c0.61 0.458 1.227-1.814-0.201-1.6-1.052 0.158-0.876 1.906 0.201 1.7v-0.1"/>
<path id="path179" fill="#B2B2B2" d="m25.055 141.7c0.956-0.664-0.354-1.984-1.1-1.299-0.861 0.79 0.585 2.14 1.1 1.3"/>
<path id="path181" fill="#B2B2B2" d="m23.356 148.9c0.931-0.658-0.305-2.064-1.102-1.301-0.835 0.8 0.588 2.12 1.102 1.3"/>
<path id="path183" fill="#B2B2B2" d="m28.755 154.1c0.523-0.058 0.302-0.854 0.102-1.099-0.279-0.341-0.86-0.428-1.2-0.101-0.744 0.716 0.272 2.034 1.099 1.299-0.001-0.04-0.001-0.07-0.001-0.1"/>
<path id="path185" fill="#B2B2B2" d="m36.055 151.9c0.625 0.074 0.411-0.843 0.199-1.1-0.303-0.368-0.851-0.389-1.199-0.102-0.855 0.703 0.272 2.005 1.101 1.302-0.034-0.03-0.067-0.07-0.101-0.1"/>
<path id="path187" fill="#B2B2B2" d="m37.856 144.4c0.521-0.063 0.302-0.854 0.1-1.1-0.292-0.355-0.867-0.404-1.201-0.102-0.826 0.75 0.278 1.998 1.102 1.302-0.001-0.03-0.001-0.07-0.001-0.1"/>
<path id="path189" fill="#B2B2B2" d="m23.356 146.7c0.592-0.628-1.046-1.758-1.5-0.5-0.456 1.26 1.601 1.34 1.5 0.5"/>
<path id="path191" fill="#B2B2B2" d="m27.156 152.2c-0.375-0.792-1.946 0.199-1.2 1.102 0.717 0.867 2.009-0.244 1.299-1.102h-0.099"/>
<path id="path193" fill="#B2B2B2" d="m33.956 151.6c-0.869 0.472-0.813 1.701 0.3 1.701 0.402 0 0.802-0.411 0.799-0.8-0.004-0.583-0.529-0.702-0.899-0.901-0.099 0.16-0.098 0.04-0.2 0"/>
<path id="path195" fill="#B2B2B2" d="m36.856 145.3c-0.051 0.134 0.04 0.197-0.102 0.299 0.173 0.31 0.299 0.901 0.801 0.901 0.435 0 0.803-0.283 0.9-0.7 0.248-1.07-1.164-1.31-1.599-0.5"/>
<path id="path197" fill="#B2B2B2" d="m32.656 139.6c0.834 0.631 1.853 0.001 1.35-1-0.498-0.99-1.834 0.09-1.35 1"/>
<path id="path199" fill="#B2B2B2" d="m30.856 139.1c0.199 0.195 0.496 0.196 0.649 0.352 0.15 0.151 0.435-0.15 0.6-0.15 0.415 0 0.418-0.938 0.2-1.151-0.299-0.294-0.813-0.586-1.2-0.198-0.441 0.44-0.36 0.714-0.15 1.248 0.036-0.15-0.046-0.05-0.099-0.1"/>
<path id="path201" fill="#B2B2B2" d="m186.56 135.5c0.536 0.373 1.073 0.746 1.609 1.119 0.651 0.453 0.752 0.36 0.391 1.081-0.633-0.434-1.266-0.866-1.898-1.3v1.544c0 0.477 0.217 0.956-0.315 0.956-0.653 0-0.485-0.133-0.485-0.768v-1.732c-0.634 0.434-1.267 0.866-1.9 1.3-0.341-0.685-0.303-0.598 0.32-1.023 0.373-0.254 1.367-0.678 1.58-1.077 0.182-0.342 0-1.272 0-1.652v-1.848c-0.5 0.283-1 0.566-1.5 0.85-0.181 0.103-1.487 0.665-1.501 0.866-0.046 0.647-0.093 1.295-0.139 1.942-0.058 0.813 0.073 0.842-0.761 0.842 0.033-0.8 0.066-1.6 0.1-2.399-0.733 0.434-1.466 0.866-2.199 1.3-0.339-0.676-0.32-0.588 0.319-0.966 0.526-0.312 1.054-0.623 1.58-0.935-0.733-0.366-1.467-0.733-2.2-1.1 0.529-0.529 0.468-0.516 1.122-0.188 0.416 0.207 1.313 0.902 1.778 0.889 0.369-0.011 1.11-0.704 1.417-0.897 0.527-0.335 1.056-0.669 1.583-1.004-0.5-0.283-1-0.566-1.5-0.85-0.334-0.188-1.11-0.85-1.5-0.85-0.439 0-1.229 0.614-1.621 0.81-0.773 0.387-0.712 0.471-1.279-0.209 0.733-0.367 1.467-0.733 2.2-1.101-0.508-0.277-1.017-0.554-1.524-0.831-0.716-0.39-0.704-0.302-0.375-1.068 0.733 0.434 1.466 0.866 2.199 1.3-0.033-0.8-0.066-1.601-0.1-2.4 0.753 0.108 0.698 0.059 0.753 0.801 0.036 0.484-0.102 1.581 0.147 2 0.197 0.331 1.093 0.655 1.417 0.85 0.527 0.317 1.056 0.634 1.583 0.95v-3.486c0-0.202-1.247-0.864-1.425-0.985-0.733-0.5-0.829-0.399-0.476-1.229 0.634 0.433 1.267 0.866 1.9 1.299v-1.544c0-0.477-0.217-0.956 0.315-0.956 0.653 0 0.485 0.133 0.485 0.768v1.732c0.633-0.433 1.266-0.866 1.898-1.299 0.322 0.751 0.341 0.673-0.318 1.123-0.373 0.254-1.367 0.678-1.58 1.077-0.182 0.342 0 1.272 0 1.653v1.847c0.473-0.283 0.944-0.566 1.417-0.85 0.363-0.219 1.363-0.58 1.583-0.95 0.227-0.381 0.103-1.384 0.135-1.823 0.061-0.825-0.066-0.858 0.764-0.978-0.033 0.8-0.066 1.601-0.1 2.4 0.7-0.434 1.399-0.866 2.1-1.3 0.134 0.233 0.267 0.467 0.4 0.7-0.733 0.399-1.467 0.8-2.2 1.199 0.7 0.367 1.4 0.733 2.101 1.101-0.429 0.641-0.351 0.624-1.022 0.288-0.588-0.294-1.175-0.587-1.763-0.881-0.165-0.082-1.181 0.652-1.343 0.744-0.558 0.315-1.115 0.632-1.673 0.947 0.996 0.631 1.992 1.263 2.988 1.894 0.146 0.093 1.299-0.636 1.468-0.72 0.745-0.373 0.813-0.637 1.345 0.027-0.7 0.366-1.4 0.733-2.101 1.1 0.733 0.434 1.467 0.867 2.2 1.301-0.392 0.586-0.308 0.657-0.896 0.293-0.534-0.331-1.069-0.662-1.604-0.993 0.033 0.8 0.066 1.6 0.1 2.399-0.75 0-0.695 0.06-0.747-0.67-0.05-0.705-0.1-1.409-0.15-2.114-0.013-0.181-1.168-0.678-1.328-0.769-0.558-0.315-1.115-0.632-1.673-0.947v3.5c-0.06-0.02-0.09-0.06-0.12-0.09"/>
<path id="path203" fill="#B2B2B2" d="m34.156 11.8c0.518 0.337 1.035 0.675 1.553 1.013 0.728 0.475 0.796 0.372 0.447 1.188-0.667-0.433-1.333-0.867-2-1.3v1.543c0 0.521 0.22 0.957-0.35 0.957s-0.35-0.436-0.35-0.957v-1.543c-0.667 0.433-1.333 0.867-2 1.3-0.315-0.735-0.355-0.664 0.296-1.089 0.403-0.263 1.469-0.691 1.704-1.111 0.184-0.329 0-1.283 0-1.653v-1.847c-0.488 0.283-0.976 0.567-1.464 0.85-0.36 0.209-1.426 0.583-1.636 0.95-0.235 0.412-0.057 1.526-0.075 2-0.029 0.794-0.021 0.699-0.826 0.8 0.067-0.8 0.133-1.6 0.2-2.4-0.508 0.277-1.016 0.554-1.524 0.832-0.697 0.38-0.627 0.442-1.075-0.231l2.199-1.2c-0.7-0.367-1.4-0.733-2.1-1.1 0.428-0.642 0.35-0.625 1.022-0.289 0.426 0.213 1.301 0.893 1.777 0.889 0.382-0.003 1.14-0.662 1.464-0.85 0.545-0.316 1.091-0.633 1.636-0.95-1.029-0.598-2.059-1.195-3.088-1.793-0.162-0.094-1.291 0.632-1.468 0.721-0.743 0.37-0.81 0.634-1.342-0.03 0.7-0.367 1.4-0.733 2.1-1.1-0.733-0.433-1.466-0.867-2.199-1.3 0.393-0.589 0.31-0.649 0.919-0.317 0.561 0.306 1.121 0.611 1.681 0.917-0.067-0.767-0.133-1.534-0.2-2.3 0.806 0 0.796-0.109 0.824 0.67 0.025 0.705 0.051 1.409 0.076 2.114 0.006 0.18 1.299 0.729 1.464 0.819 0.545 0.299 1.09 0.598 1.636 0.897v-1.653c0-0.415 0.206-1.479 0-1.847-0.214-0.383-1.188-0.774-1.553-1.013-0.682-0.445-0.816-0.348-0.447-1.087 0.667 0.4 1.333 0.8 2 1.2v-1.543c0-0.521-0.22-0.957 0.35-0.957s0.35 0.436 0.35 0.957v1.543c0.667-0.4 1.333-0.8 2-1.2 0.335 0.67 0.32 0.587-0.296 0.989-0.403 0.263-1.469 0.69-1.704 1.111-0.184 0.329 0 1.283 0 1.653v1.847c0.488-0.268 0.976-0.535 1.464-0.803 0.35-0.192 1.433-0.546 1.636-0.897 0.23-0.398 0.054-1.5 0.07-1.959 0.031-0.873-0.072-0.841 0.83-0.841-0.067 0.767-0.133 1.534-0.2 2.3 0.508-0.277 1.016-0.554 1.524-0.832 0.697-0.38 0.627-0.442 1.076 0.231-0.733 0.433-1.467 0.867-2.2 1.3 0.7 0.367 1.4 0.733 2.1 1.1-0.529 0.529-0.468 0.516-1.122 0.189-0.42-0.21-1.308-0.899-1.777-0.889-0.372 0.008-1.104 0.663-1.417 0.85-0.528 0.317-1.056 0.633-1.583 0.95 0.472 0.283 0.944 0.567 1.417 0.85 0.351 0.21 1.168 0.941 1.583 0.95 0.428 0.009 1.239-0.62 1.62-0.81 0.774-0.387 0.712-0.471 1.279 0.21-0.7 0.367-1.4 0.733-2.1 1.1 0.733 0.4 1.467 0.8 2.2 1.2-0.393 0.589-0.311 0.649-0.92 0.316-0.561-0.305-1.121-0.611-1.681-0.917 0.067 0.8 0.133 1.6 0.2 2.4-0.688-0.086-0.794 0.048-0.82-0.635-0.026-0.716-0.053-1.431-0.08-2.147-0.007-0.192-1.292-0.768-1.464-0.868-0.545-0.317-1.09-0.633-1.636-0.95v3.502"/>
<path id="path205" fill="#B2B2B2" d="m204.8 62.879c0.518 0.337 1.035 0.675 1.553 1.013 0.728 0.475 0.796 0.372 0.447 1.188-0.667-0.434-1.333-0.867-2-1.3v1.543c0 0.521 0.221 0.957-0.35 0.957s-0.351-0.436-0.351-0.957v-1.543c-0.667 0.434-1.333 0.867-2 1.3-0.314-0.735-0.355-0.664 0.297-1.089 0.402-0.263 1.468-0.691 1.703-1.111 0.184-0.329 0-1.283 0-1.653v-1.847c-0.488 0.283-0.976 0.567-1.464 0.85-0.36 0.209-1.426 0.583-1.636 0.95-0.235 0.412-0.057 1.526-0.074 2-0.029 0.795-0.021 0.699-0.826 0.8 0.066-0.8 0.134-1.6 0.2-2.4-0.508 0.277-1.017 0.554-1.524 0.831-0.697 0.38-0.627 0.442-1.074-0.231l2.199-1.2c-0.7-0.367-1.4-0.733-2.101-1.1 0.429-0.642 0.351-0.625 1.023-0.289 0.426 0.213 1.3 0.894 1.776 0.889 0.383-0.003 1.14-0.662 1.465-0.85 0.546-0.316 1.091-0.633 1.637-0.95-1.029-0.598-2.06-1.195-3.089-1.793-0.161-0.094-1.29 0.632-1.467 0.721-0.746 0.373-0.813 0.636-1.346-0.028 0.7-0.367 1.4-0.733 2.101-1.1-0.733-0.433-1.466-0.867-2.199-1.3 0.392-0.59 0.309-0.649 0.918-0.317 0.561 0.306 1.12 0.611 1.681 0.917-0.066-0.767-0.134-1.533-0.2-2.3 0.797 0 0.797-0.113 0.824 0.67 0.025 0.705 0.051 1.409 0.075 2.113 0.007 0.18 1.3 0.729 1.465 0.819 0.545 0.299 1.091 0.598 1.636 0.897v-1.653c0-0.415 0.206-1.479 0-1.847-0.214-0.383-1.188-0.774-1.553-1.013-0.683-0.445-0.816-0.348-0.447-1.087 0.667 0.4 1.333 0.8 2 1.2v-1.543c0-0.521-0.221-0.957 0.351-0.957 0.57 0 0.35 0.436 0.35 0.957v1.543c0.667-0.4 1.333-0.8 2-1.2 0.335 0.67 0.32 0.587-0.297 0.989-0.402 0.263-1.468 0.691-1.703 1.111-0.184 0.329 0 1.283 0 1.653v1.847c0.488-0.268 0.977-0.535 1.464-0.803 0.351-0.192 1.434-0.546 1.637-0.897 0.23-0.398 0.054-1.5 0.069-1.958 0.031-0.873-0.072-0.841 0.83-0.841-0.066 0.767-0.134 1.533-0.2 2.3 0.508-0.277 1.017-0.554 1.524-0.831 0.697-0.38 0.627-0.441 1.077 0.231-0.733 0.433-1.468 0.867-2.201 1.3 0.7 0.367 1.399 0.733 2.1 1.1-0.529 0.529-0.468 0.516-1.122 0.189-0.419-0.21-1.307-0.899-1.776-0.889-0.371 0.008-1.104 0.663-1.417 0.85-0.527 0.317-1.056 0.633-1.583 0.95 0.473 0.283 0.944 0.566 1.417 0.85 0.351 0.21 1.168 0.941 1.583 0.95 0.428 0.009 1.239-0.62 1.619-0.811 0.774-0.387 0.712-0.47 1.279 0.21-0.7 0.367-1.399 0.733-2.1 1.1 0.733 0.4 1.468 0.8 2.201 1.2-0.394 0.589-0.312 0.649-0.921 0.316-0.561-0.306-1.12-0.611-1.681-0.917 0.066 0.8 0.134 1.6 0.2 2.4-0.688-0.086-0.794 0.048-0.819-0.635-0.026-0.716-0.053-1.431-0.079-2.147-0.008-0.192-1.294-0.768-1.465-0.868-0.546-0.317-1.091-0.633-1.637-0.95v3.501"/>
<path id="path207" fill="#B2B2B2" d="m28.6 59.879c0.395 0.271 0.79 0.543 1.185 0.815 0.453 0.312 0.422 0.267 0.214 0.785-0.466-0.333-0.933-0.667-1.399-1 0 0.451 0.249 1.8-0.25 1.8s-0.25-1.349-0.25-1.8c-0.467 0.333-0.934 0.667-1.4 1-0.166-0.415-0.283-0.443 0.081-0.693 0.433-0.298 0.866-0.596 1.299-0.893 0.255-0.175 0.021-2.141 0.021-2.514-0.728 0.43-1.456 0.86-2.184 1.291-0.133 0.079-0.073 1.079-0.082 1.24-0.032 0.607 0.071 0.647-0.535 0.769 0.034-0.567 0.067-1.133 0.101-1.7-0.378 0.212-0.756 0.425-1.134 0.638-0.523 0.294-0.454 0.283-0.767-0.238 0.534-0.3 1.067-0.6 1.601-0.9-0.5-0.267-1-0.533-1.5-0.8 0.326-0.436 0.273-0.415 0.741-0.167 0.295 0.156 0.925 0.668 1.259 0.667 0.283-0.001 0.86-0.508 1.1-0.65 0.367-0.217 0.733-0.434 1.1-0.65-0.728-0.43-1.456-0.86-2.183-1.291-0.126-0.075-0.979 0.5-1.118 0.574-0.537 0.284-0.527 0.413-0.898-0.083 0.5-0.267 1-0.534 1.5-0.8-0.534-0.3-1.067-0.6-1.601-0.9 0.337-0.449 0.288-0.407 0.767-0.138 0.378 0.213 0.756 0.425 1.134 0.638-0.034-0.566-0.067-1.133-0.101-1.7 0.531 0 0.498-0.049 0.523 0.464 0.025 0.504 0.051 1.009 0.076 1.514 0.014 0.279 1.892 1.054 2.201 1.222v-1.151c0-0.302 0.15-1.082 0-1.349-0.284-0.504-2.041-0.776-1.4-1.5 0.467 0.3 0.934 0.6 1.4 0.9 0-0.451-0.249-1.8 0.25-1.8s0.25 1.349 0.25 1.8c0.466-0.3 0.933-0.6 1.399-0.9 0.641 0.724-1.116 0.996-1.399 1.5-0.128 0.228 0 0.896 0 1.151v1.349c0.337-0.184 0.675-0.368 1.013-0.553 0.271-0.147 1.017-0.384 1.187-0.647 0.167-0.257 0.053-1.062 0.069-1.367 0.03-0.592-0.08-0.633 0.532-0.633-0.034 0.566-0.067 1.133-0.101 1.7 0.534-0.3 1.067-0.6 1.601-0.9 0.533 0.603-0.852 1.031-1.3 1.3 0.5 0.267 1 0.534 1.5 0.8-0.317 0.421-0.262 0.419-0.718 0.191l-1.362-0.681c-0.248-0.124-1.823 1.106-2.12 1.29 0.322 0.2 0.645 0.399 0.967 0.599 0.261 0.162 0.823 0.682 1.133 0.702 0.307 0.019 0.957-0.479 1.23-0.616 0.529-0.264 0.507-0.368 0.87 0.116-0.5 0.267-1 0.533-1.5 0.8 0.354 0.212 0.708 0.425 1.063 0.638 0.478 0.287 0.447 0.238 0.237 0.762-0.534-0.3-1.067-0.6-1.601-0.9 0.034 0.567 0.067 1.133 0.101 1.7-0.532-0.106-0.498-0.067-0.526-0.593-0.018-0.338 0.095-1.114-0.075-1.407-0.145-0.251-0.854-0.505-1.1-0.65-0.367-0.217-0.733-0.434-1.1-0.65-0.001 0.832-0.001 1.665-0.001 2.499"/>
<path id="path209" fill="#B2B2B2" d="m28.3 50.079c-0.367 0.767-0.733 1.533-1.1 2.3h2.3c-0.358-0.715-0.651-1.721-1.2-2.3"/>
<path id="path211" fill="#B2B2B2" d="m25 50.979c0.067 0.867 0.133 1.733 0.2 2.6 0.667-0.4 1.333-0.8 2-1.2-0.468-0.276-2.092-0.907-2.2-1.4"/>
<path id="path213" fill="#B2B2B2" d="m22.4 53.579c0.5 0.733 1 1.466 1.5 2.2 0.367-0.667 0.733-1.333 1.1-2-0.629-0.025-2.135 0.206-2.6-0.2"/>
<path id="path215" fill="#B2B2B2" d="m21.4 56.879c0.8 0.4 1.6 0.8 2.399 1.2v-2.3c-0.767 0.367-1.533 0.733-2.3 1.1h-0.099"/>
<path id="path217" fill="#B2B2B2" d="m22.6 60.279h2.5c-0.367-0.667-0.734-1.333-1.101-2-0.466 0.7-0.933 1.4-1.399 2.1v-0.1"/>
<path id="path219" fill="#B2B2B2" d="m24.9 62.779c0.733-0.467 1.467-0.933 2.2-1.4-0.667-0.4-1.333-0.8-2-1.2-0.016 0.425 0.105 2.507-0.2 2.6"/>
<path id="path221" fill="#B2B2B2" d="m28.4 63.679c0.4-0.733 0.8-1.467 1.2-2.2h-2.4c0.4 0.733 0.8 1.467 1.2 2.2"/>
<path id="path223" fill="#B2B2B2" d="m31.8 62.779c-0.033-0.833-0.066-1.667-0.1-2.5-0.7 0.367-1.4 0.733-2.1 1.1 0.733 0.467 1.467 0.933 2.2 1.4"/>
<path id="path225" fill="#B2B2B2" d="m34.3 60.179c-0.433-0.7-0.867-1.4-1.3-2.1-0.4 0.667-0.8 1.333-1.2 2 0.498 0.019 0.997 0.039 1.495 0.058 0.278 0.011 0.557 0.021 0.835 0.032 0.059 0.002 0.41 0.006 0.17 0.01"/>
<path id="path227" fill="#B2B2B2" d="m35 56.779c-0.733-0.333-1.467-0.667-2.2-1v2.3c0.441-0.23 0.881-0.46 1.322-0.69 0.182-0.095 1.033-0.481 0.878-0.51v-0.1"/>
<path id="path229" fill="#B2B2B2" d="m34.2 53.379c-0.8 0.067-1.6 0.133-2.4 0.2 0.367 0.667 0.734 1.333 1.101 2 0.466-0.7 0.933-1.4 1.399-2.1-0.034-0.033-0.067-0.067-0.1-0.1"/>
<path id="path231" fill="#B2B2B2" d="m31.9 51.079c-0.7 0.467-1.4 0.933-2.101 1.4 0.667 0.367 1.333 0.733 2 1.1 0.034-0.833 0.067-1.666 0.101-2.5"/>
<path id="path233" fill="#B2B2B2" d="m162.5 11.379c0.388 0.25 0.775 0.501 1.163 0.752 0.521 0.337 0.571 0.266 0.337 0.848-0.467-0.333-0.934-0.667-1.4-1 0 0.451 0.249 1.8-0.25 1.8s-0.25-1.349-0.25-1.8c-0.466 0.333-0.933 0.667-1.398 1-0.167-0.414-0.284-0.443 0.079-0.693 0.434-0.298 0.866-0.596 1.299-0.893 0.255-0.175 0.021-2.141 0.021-2.514-0.728 0.43-1.455 0.86-2.184 1.291-0.133 0.079-0.072 1.079-0.081 1.24-0.032 0.607 0.071 0.647-0.535 0.769 0.033-0.567 0.067-1.133 0.101-1.7-0.378 0.212-0.756 0.425-1.134 0.638-0.523 0.294-0.454 0.283-0.767-0.238 0.533-0.3 1.066-0.6 1.6-0.9-0.5-0.267-1-0.533-1.5-0.8 0.327-0.435 0.273-0.415 0.741-0.167 0.295 0.156 0.925 0.668 1.259 0.667 0.283-0.001 0.86-0.508 1.101-0.65 0.366-0.217 0.732-0.434 1.1-0.65-0.729-0.43-1.456-0.86-2.185-1.291-0.126-0.075-0.979 0.5-1.117 0.574-0.536 0.285-0.525 0.413-0.898-0.083 0.5-0.267 1-0.534 1.5-0.8-0.533-0.3-1.066-0.6-1.6-0.9 0.337-0.449 0.288-0.407 0.767-0.138 0.378 0.213 0.756 0.425 1.134 0.638-0.033-0.566-0.067-1.133-0.101-1.7 0.531 0 0.497-0.049 0.523 0.464 0.025 0.504 0.051 1.009 0.076 1.514 0.014 0.279 1.891 1.054 2.2 1.222v-1.151c0-0.302 0.15-1.082 0-1.349-0.284-0.504-2.041-0.776-1.398-1.5 0.466 0.3 0.933 0.6 1.398 0.9 0-0.451-0.249-1.8 0.25-1.8s0.25 1.349 0.25 1.8c0.467-0.3 0.934-0.6 1.4-0.9 0.643 0.724-1.116 0.996-1.4 1.5-0.128 0.227 0 0.896 0 1.151v1.349c0.338-0.184 0.676-0.368 1.014-0.553 0.271-0.147 1.017-0.384 1.187-0.647 0.167-0.257 0.054-1.062 0.068-1.367 0.03-0.592-0.079-0.633 0.532-0.633-0.033 0.566-0.067 1.133-0.101 1.7 0.533-0.3 1.067-0.6 1.601-0.9 0.531 0.603-0.853 1.031-1.301 1.3 0.5 0.267 1 0.534 1.5 0.8-0.316 0.422-0.262 0.419-0.717 0.191l-1.362-0.681c-0.248-0.124-1.823 1.106-2.12 1.29 0.322 0.2 0.645 0.399 0.967 0.599 0.261 0.162 0.822 0.682 1.133 0.702 0.307 0.019 0.957-0.479 1.23-0.616 0.528-0.264 0.507-0.368 0.869 0.116-0.5 0.267-1 0.533-1.5 0.8 0.354 0.212 0.708 0.425 1.063 0.638 0.478 0.287 0.447 0.238 0.238 0.762-0.533-0.3-1.067-0.6-1.601-0.9 0.033 0.567 0.067 1.133 0.101 1.7-0.532-0.106-0.498-0.067-0.526-0.593-0.018-0.338 0.096-1.114-0.074-1.407-0.146-0.251-0.854-0.505-1.1-0.65-0.367-0.217-0.734-0.434-1.101-0.65v2.5c-0.03-0.001-0.07-0.001-0.1-0.001"/>
<path id="path235" fill="#B2B2B2" d="m162.4 1.779c-0.399 0.767-0.8 1.534-1.199 2.3h2.398c-0.4-0.766-0.8-1.534-1.2-2.3"/>
<path id="path237" fill="#B2B2B2" d="m158.9 2.479c0.066 0.867 0.133 1.733 0.199 2.6 0.667-0.4 1.333-0.8 2-1.2-0.71-0.439-1.6-0.822-2.2-1.4"/>
<path id="path239" fill="#B2B2B2" d="m156.5 5.279c0.467 0.733 0.934 1.467 1.4 2.2 0.399-0.7 0.8-1.4 1.199-2.1-0.87-0.033-1.73-0.067-2.6-0.1"/>
<path id="path241" fill="#B2B2B2" d="m155.7 8.579c0.767 0.4 1.532 0.8 2.299 1.2v-2.3c-0.77 0.367-1.53 0.733-2.3 1.1"/>
<path id="path243" fill="#B2B2B2" d="m156.5 11.779h2.6c-0.366-0.667-0.733-1.333-1.1-2-0.467 0.7-0.934 1.4-1.4 2.1-0.03-0.033-0.07-0.067-0.1-0.1"/>
<path id="path245" fill="#B2B2B2" d="m159 14.279c0.7-0.467 1.399-0.933 2.1-1.4-0.667-0.4-1.333-0.8-2-1.2-0.03 0.867-0.07 1.733-0.1 2.6"/>
<path id="path247" fill="#B2B2B2" d="m162.3 14.879c0.4-0.733 0.8-1.466 1.2-2.2h-2.299c0.366 0.767 0.732 1.533 1.099 2.3v-0.1"/>
<path id="path249" fill="#B2B2B2" d="m165.7 14.079v-2.5c-0.7 0.4-1.401 0.8-2.102 1.2 0.733 0.467 1.467 0.934 2.2 1.4 0.04-0.14-0.04-0.055-0.1-0.1"/>
<path id="path251" fill="#B2B2B2" d="m168.3 11.679c-0.434-0.7-0.866-1.4-1.3-2.1-0.4 0.667-0.8 1.333-1.2 2 0.498 0.019 0.996 0.039 1.495 0.058 0.278 0.011 0.557 0.021 0.835 0.032 0.05 0.002 0.4 0.006 0.16 0.01"/>
<path id="path253" fill="#B2B2B2" d="m169 8.279c-0.733-0.333-1.467-0.667-2.2-1v2.3c0.44-0.23 0.881-0.46 1.322-0.69 0.182-0.095 1.029-0.48 0.878-0.51v-0.1"/>
<path id="path255" fill="#B2B2B2" d="m168 4.979c-0.8 0.067-1.601 0.133-2.4 0.2 0.367 0.667 0.734 1.333 1.102 2 0.466-0.733 0.933-1.467 1.398-2.2h-0.1"/>
<path id="path257" fill="#B2B2B2" d="m165.7 2.579c-0.7 0.467-1.401 0.933-2.102 1.4 0.667 0.4 1.333 0.8 2 1.2 0.03-0.866 0.07-1.733 0.1-2.6"/>
<path id="path259" fill="#B2B2B2" d="m146 164.38c0.464 0.301 2.04 0.883 1.5 1.5-0.467-0.3-0.934-0.599-1.4-0.898 0 0.405 0.221 1.799-0.211 1.799-0.492 0-0.389-0.046-0.389-0.524v-1.274c-0.467 0.3-0.934 0.599-1.4 0.898-0.639-0.722 1.117-0.997 1.4-1.5 0.128-0.228 0-0.896 0-1.151v-1.349c-0.322 0.199-0.645 0.399-0.967 0.599-0.254 0.157-0.986 0.437-1.133 0.702-0.168 0.304-0.057 1.063-0.074 1.408-0.03 0.573-0.045 0.496-0.625 0.592 0.033-0.566 0.065-1.133 0.099-1.699-0.354 0.212-0.708 0.425-1.063 0.637-0.503 0.301-0.432 0.271-0.737-0.238 0.533-0.3 1.066-0.599 1.6-0.898-0.533-0.267-1.066-0.534-1.6-0.801 0.4-0.4 0.351-0.427 0.841-0.167 0.295 0.156 0.925 0.668 1.259 0.667 0.283-0.001 0.86-0.509 1.101-0.65 0.366-0.217 0.732-0.434 1.1-0.65-0.367-0.217-0.733-0.433-1.1-0.648-0.24-0.142-0.817-0.648-1.101-0.649-0.334-0.001-0.964 0.51-1.259 0.666-0.49 0.26-0.44 0.233-0.841-0.166 0.533-0.268 1.066-0.534 1.6-0.802-0.533-0.3-1.066-0.601-1.6-0.9 0.331-0.439 0.277-0.412 0.737-0.137 0.354 0.212 0.708 0.425 1.063 0.637-0.033-0.566-0.065-1.133-0.099-1.699 0.572 0 0.594-0.096 0.622 0.464 0.025 0.505 0.051 1.009 0.076 1.514 0.014 0.28 1.799 1.05 2.101 1.222v-1.151c0-0.302 0.15-1.082 0-1.349-0.284-0.504-2.039-0.774-1.4-1.5 0.467 0.3 0.934 0.601 1.4 0.9 0-0.405-0.221-1.799 0.211-1.799 0.492 0 0.389 0.046 0.389 0.524v1.274c0.467-0.3 0.934-0.601 1.4-0.9 0.643 0.725-1.116 0.996-1.4 1.5-0.128 0.228 0 0.896 0 1.151v1.349c0.322-0.185 0.646-0.368 0.968-0.553 0.273-0.155 0.955-0.383 1.134-0.646 0.179-0.265 0.104-1.051 0.136-1.367 0.06-0.59-0.046-0.633 0.563-0.633-0.033 0.566-0.067 1.133-0.101 1.699 0.354-0.212 0.708-0.425 1.063-0.637 0.46-0.275 0.406-0.303 0.737 0.137-0.533 0.3-1.066 0.601-1.6 0.9 0.5 0.268 1 0.534 1.5 0.802-0.325 0.435-0.272 0.413-0.74 0.166-0.295-0.156-0.926-0.667-1.26-0.666-0.283 0.001-0.86 0.508-1.101 0.649-0.366 0.216-0.732 0.432-1.1 0.648 0.729 0.431 1.456 0.861 2.185 1.291 0.126 0.075 0.979-0.501 1.118-0.573 0.537-0.284 0.526-0.414 0.897 0.083l-1.5 0.801c0.533 0.3 1.066 0.599 1.6 0.898-0.24 0.401-0.191 0.565-0.597 0.322-0.401-0.24-0.803-0.48-1.203-0.721 0.033 0.566 0.067 1.133 0.101 1.699-0.53-0.104-0.497-0.07-0.552-0.592-0.037-0.355 0.035-1.1-0.147-1.408-0.136-0.23-0.744-0.461-0.968-0.599l-1.134-0.702c0 0.43 0.2 2.4-0.1 2.51"/>
<path id="path261" fill="#B2B2B2" d="m145.7 154.48c-0.367 0.767-0.734 1.532-1.102 2.299h2.301c-0.4-0.77-0.8-1.53-1.2-2.3"/>
<path id="path263" fill="#B2B2B2" d="m142.4 155.38c0.033 0.9 0.066 1.802 0.1 2.702 0.667-0.4 1.333-0.802 2-1.202-0.7-0.466-1.399-0.933-2.1-1.398v-0.1"/>
<path id="path265" fill="#B2B2B2" d="m139.8 157.98c0.467 0.733 0.935 1.466 1.401 2.199 0.399-0.667 0.8-1.333 1.199-2-0.63-0.03-2.14 0.21-2.6-0.2"/>
<path id="path267" fill="#B2B2B2" d="m139 161.38c0.8 0.4 1.601 0.802 2.4 1.202v-2.302c-0.71 0.34-1.63 1.02-2.4 1.1"/>
<path id="path269" fill="#B2B2B2" d="m139.9 164.78c0.866-0.033 1.733-0.066 2.6-0.1-0.4-0.667-0.8-1.333-1.2-2-0.434 0.733-0.866 1.466-1.3 2.199-0.03-0.04-0.07-0.07-0.1-0.1"/>
<path id="path271" fill="#B2B2B2" d="m142.4 167.18c0.733-0.467 1.466-0.934 2.199-1.4-0.667-0.366-1.333-0.733-2-1.1-0.07 0.83-0.13 1.67-0.2 2.5"/>
<path id="path273" fill="#B2B2B2" d="m145.7 168.18c0.399-0.733 0.8-1.466 1.199-2.199h-2.301c0.37 0.73 0.73 1.46 1.1 2.2"/>
<path id="path275" fill="#B2B2B2" d="m149.2 167.18c-0.034-0.833-0.067-1.667-0.102-2.5-0.667 0.399-1.333 0.8-2 1.199 0.733 0.467 1.467 0.934 2.2 1.4-0.03-0.04-0.07-0.07-0.1-0.1"/>
<path id="path277" fill="#B2B2B2" d="m151.8 164.68c-0.467-0.699-0.933-1.399-1.399-2.099-0.367 0.667-0.733 1.333-1.101 2 0.83 0.03 1.67 0.07 2.5 0.1"/>
<path id="path279" fill="#B2B2B2" d="m152.5 161.48c-0.733-0.367-1.467-0.734-2.2-1.102v2.301c0.44-0.229 0.881-0.46 1.322-0.689 0.18-0.09 1.03-0.48 0.88-0.51"/>
<path id="path281" fill="#B2B2B2" d="m151.7 157.88c-0.833 0.067-1.667 0.135-2.5 0.202 0.366 0.667 0.732 1.333 1.099 2 0.467-0.7 0.935-1.4 1.401-2.101v-0.1"/>
<path id="path283" fill="#B2B2B2" d="m149.1 155.38c-0.7 0.467-1.399 0.934-2.1 1.4 0.667 0.4 1.333 0.801 2 1.201 0.05-0.58 0.47-2.17 0.1-2.6"/>
<path id="path285" fill="#B2B2B2" d="m69.456 136.8c0.464 0.301 2.038 0.883 1.5 1.5-0.467-0.3-0.934-0.599-1.4-0.898 0 0.405 0.221 1.8-0.211 1.8-0.492 0-0.389-0.046-0.389-0.524v-1.275c-0.467 0.3-0.934 0.599-1.4 0.898-0.638-0.722 1.118-0.997 1.4-1.5 0.128-0.228 0-0.896 0-1.151v-1.349c-0.322 0.199-0.645 0.399-0.967 0.599-0.254 0.157-0.986 0.437-1.133 0.702-0.168 0.304-0.057 1.062-0.075 1.407-0.031 0.573-0.045 0.496-0.625 0.593 0.033-0.566 0.066-1.133 0.099-1.699-0.5 0.3-1 0.599-1.5 0.898-0.1-0.167-0.199-0.333-0.299-0.5 0.533-0.3 1.066-0.599 1.6-0.898-0.533-0.267-1.066-0.534-1.6-0.801 0.4-0.399 0.351-0.426 0.841-0.166 0.295 0.156 0.925 0.667 1.259 0.666 0.283-0.001 0.86-0.509 1.1-0.65 0.367-0.217 0.733-0.434 1.1-0.65-0.367-0.217-0.733-0.433-1.1-0.649-0.24-0.142-0.816-0.648-1.1-0.649-0.334-0.001-0.964 0.511-1.259 0.667-0.49 0.26-0.44 0.233-0.841-0.167 0.533-0.267 1.066-0.533 1.6-0.8-0.533-0.301-1.066-0.601-1.6-0.901 0.33-0.44 0.277-0.412 0.736-0.137 0.354 0.212 0.708 0.425 1.063 0.637-0.033-0.566-0.066-1.133-0.099-1.699 0.572 0 0.594-0.096 0.622 0.464 0.026 0.505 0.051 1.009 0.077 1.514 0.014 0.28 1.799 1.049 2.101 1.222v-1.151c0-0.302 0.15-1.082 0-1.349-0.285-0.505-2.039-0.772-1.4-1.5 0.467 0.301 0.934 0.601 1.4 0.901 0-0.405-0.221-1.8 0.211-1.8 0.492 0 0.389 0.046 0.389 0.524v1.275c0.467-0.301 0.934-0.601 1.4-0.901 0.641 0.727-1.116 0.995-1.4 1.5-0.128 0.228 0 0.896 0 1.151v1.349c0.322-0.185 0.645-0.368 0.967-0.553 0.273-0.155 0.955-0.383 1.133-0.646 0.179-0.265 0.105-1.051 0.137-1.367 0.059-0.59-0.046-0.633 0.563-0.633-0.034 0.566-0.068 1.133-0.102 1.699 0.354-0.212 0.708-0.425 1.063-0.637 0.46-0.275 0.406-0.303 0.738 0.137-0.533 0.301-1.066 0.601-1.6 0.901 0.5 0.267 1 0.533 1.5 0.8-0.326 0.436-0.273 0.414-0.741 0.167-0.295-0.156-0.925-0.668-1.259-0.667-0.283 0.001-0.861 0.508-1.101 0.649-0.367 0.217-0.734 0.433-1.101 0.649 0.729 0.431 1.457 0.861 2.185 1.291 0.126 0.075 0.979-0.5 1.118-0.573 0.537-0.284 0.526-0.412 0.898 0.083l-1.5 0.801c0.533 0.3 1.066 0.599 1.6 0.898-0.241 0.4-0.192 0.565-0.598 0.322-0.401-0.24-0.802-0.48-1.203-0.721 0.034 0.566 0.068 1.133 0.102 1.699-0.53-0.105-0.497-0.07-0.552-0.593-0.038-0.355 0.034-1.099-0.148-1.407-0.136-0.231-0.744-0.461-0.967-0.599-0.378-0.234-0.755-0.468-1.133-0.702 0 0.44 0.196 2.42-0.099 2.52"/>
<path id="path287" fill="#B2B2B2" d="m69.255 127.1c-0.366 0.767-0.732 1.534-1.099 2.301h2.3c-0.401-0.76-0.801-1.53-1.201-2.3"/>
<path id="path289" fill="#B2B2B2" d="m65.856 128.1c0.033 0.867 0.066 1.733 0.1 2.601 0.667-0.4 1.333-0.8 2-1.2-0.7-0.47-1.4-0.93-2.1-1.4"/>
<path id="path291" fill="#B2B2B2" d="m63.456 130.6c0.467 0.733 0.934 1.466 1.4 2.199 0.367-0.667 0.733-1.333 1.1-2-0.833-0.033-1.667-0.065-2.5-0.099v-0.1"/>
<path id="path293" fill="#B2B2B2" d="m62.555 134l2.301 1.2v-2.3c-0.767 0.37-1.533 0.74-2.301 1.1"/>
<path id="path295" fill="#B2B2B2" d="m63.456 137.2h2.6c-0.4-0.667-0.799-1.333-1.199-2-0.467 0.699-0.934 1.399-1.4 2.099-0.001-0.03-0.001-0.07-0.001-0.1"/>
<path id="path297" fill="#B2B2B2" d="m65.856 139.6c0.733-0.434 1.466-0.867 2.199-1.301-0.667-0.399-1.333-0.8-2-1.199-0.038 0.498-0.076 0.996-0.114 1.495-0.021 0.278-0.043 0.557-0.064 0.835-0.005 0.05-0.013 0.4-0.021 0.16"/>
<path id="path299" fill="#B2B2B2" d="m69.255 140.3c0.367-0.733 0.734-1.466 1.102-2.199h-2.301c0.397 0.762 0.793 1.522 1.19 2.284 0.028 0.06 0.007-0.07 0.009-0.08"/>
<path id="path301" fill="#B2B2B2" d="m72.656 139.5c-0.034-0.833-0.067-1.667-0.101-2.5-0.667 0.4-1.333 0.8-2 1.2 0.733 0.467 1.466 0.933 2.199 1.399-0.032-0.03-0.065-0.07-0.098-0.1"/>
<path id="path303" fill="#B2B2B2" d="m75.255 137.1c-0.466-0.7-0.932-1.399-1.398-2.1-0.367 0.667-0.734 1.333-1.102 2 0.833 0.03 1.666 0.07 2.5 0.1"/>
<path id="path305" fill="#B2B2B2" d="m75.956 133.7c-0.767-0.333-1.533-0.667-2.3-1v2.3c0.767-0.4 1.533-0.801 2.3-1.201v-0.1"/>
<path id="path307" fill="#B2B2B2" d="m74.956 130.4c-0.833 0.066-1.667 0.133-2.5 0.199 0.4 0.667 0.8 1.333 1.2 2 0.268-0.421 0.536-0.843 0.804-1.264 0.119-0.19 0.671-0.88 0.496-0.94"/>
<path id="path309" fill="#B2B2B2" d="m72.555 128c-0.7 0.467-1.4 0.934-2.1 1.4 0.667 0.399 1.333 0.8 2 1.199 0.032-0.41 0.366-2.52 0.1-2.6"/>
<path id="path311" fill="#E9C800" d="m112.8 56.079c0.348 1.762-0.552 4.293-2.157 5.255-1.642 0.985-3.458 2.269-4.538 3.889-2.193 3.287-4.886 6.946-8.481 8.85-3.755 1.989-8.138 3.045-12.334 3.617-2.016 0.274-4.36 0.711-6.351 0.379-2.094-0.35-3.94-2.037-5.456-3.416-0.747-0.679-1.4-2.002-1.629-2.975-0.091-0.386-0.134-1.419-0.515-1.515-0.469-0.117-1.104-0.484-1.477-0.804-2.083-1.785-2.668-4.051-2.961-6.681 2.402-0.063 4.804-0.126 7.206-0.19 0.485-0.013 0.899 0.106 1.375 0.216 1.298 0.299 2.596 0.599 3.894 0.898 2.611 0.603 5.223 1.205 7.834 1.808 1.635 0.377 2.979-1.492 3.386-2.849 1.063-3.547 3.406-6.737 6.905-8.083 1.018 0 3.185-0.848 3.4-2 0.132-0.707-0.16-1.357-0.65-1.85-0.491-0.493-1.463 0.563-1.75 0.85-0.157-0.991 1.319-1.699 2.101-1.8 0.521-0.067 1.479 0.059 1.899 0.4 0.54 0.438 0.374 1.212 0.3 1.8 1.216-0.01 1.741-1.791 2-2.7 1.165 1.475 0.993 3.408-0.3 4.7 1.661 0.655 2.777 0.076 3.7-1.4-0.193 0.581-0.268 1.269-0.741 1.741-0.57 0.569-1.225 0.945-1.959 1.259 0.61-0.292 1.362-0.267 2-0.6 0.718-0.375 1.007-1.007 1.549-1.548 0.468-0.468 1.417-0.133 1.952-0.402 0.712-0.357 1.247-0.944 0.798-1.75 0.999 0.37 0.661 2.079-0.222 2.374-0.554 0.186-1 0.421-1.5 0.72-0.534 0.32-0.745 0.716-1.118 1.181-0.341 0.427-0.606 0.866-0.78 1.387-0.16 0.48-0.155 1.2-0.431 1.615-0.3 0.453-0.495 0.954-0.97 1.271-0.398 0.266-0.915 0.549-1.278 0.852 0.509-0.102 0.965-0.086 1.448-0.279 0.48-0.192 0.912-0.405 1.4-0.6 0.875-0.35 1.582-1.378 2.03-2.16 0.5-0.873 0.92-1.785 1.42-2.662 0.615-1.078 1.103-1.7 2.401-1.7-1.01-0.06-1.26 2.23-1.4 2.902"/>
<path id="path313" fill="#AB0805" d="m58.9 56.179c-1.145 1.373-2.603 3.147-2.4 5.1 0.097 0.937 0.914 1.694 1.7 2.1 0.178 0.092 0.904 0.429 1.043 0.387 0.609-0.183 1.171-0.32 1.799-0.417 4.112-0.633 8.215-0.101 12.317 0.271 2.154 0.196 4.289 0.565 6.431 0.871 1.194 0.17 2.385 0.347 3.576 0.535 0.942 0.149 1.975 0.138 2.896 0.368 1.848 0.462 0.933-4.634 0.716-5.5-0.114-0.455-0.234-0.904-0.409-1.339-0.192-0.48-0.664-0.605-1.138-0.869-0.89-0.495-1.867-0.943-2.851-1.212-3.95-1.077-8.099-1.695-12.202-1.695-1.916 0-3.822-0.237-5.734 0.037-0.985 0.141-1.942 0.326-2.903 0.588-0.791 0.216-2.141 0.278-2.742 0.875 0.036-0.144-0.045-0.052-0.099-0.1"/>
<path id="path315" fill="#E94606" d="m59.8 56.479c-0.771 1.029-1 1.946-1 3.222 0 0.542 0.05 1.054 0.2 1.578 0.136 0.476 0.25 0.352 0.55 0.65 0.228 0.227 0.591-0.091 0.7-0.2 0.281-0.281 0.263-0.499 0.166-0.888-0.13-0.524-0.116-1.022-0.116-1.566 0-0.736 0.208-1.048 0.5-1.696-0.137-0.034-0.059 0.037-0.1 0.1 0.045 0.109 0.3-0.196 0.3-0.35 0-0.308-0.008-0.414-0.2-0.65-0.21-0.258-1.019-0.239-1-0.2"/>
<path id="path317" fill="#E94606" d="m61.2 58.279c0 0.76-0.571 2.127 0.05 2.75 0.455 0.457 1.262 0.204 1.351-0.45 0.024-0.181-0.101-0.395-0.101-0.6 0-0.29 0.101-0.511 0.101-0.8v-1.149c0-0.272-0.497-0.362-0.7-0.35-0.379 0.021-0.528 0.28-0.701 0.599"/>
<path id="path319" fill="#E94606" d="m82.5 59.079v0.1-0.1s0-0.067 0-0.1c-0.063 0.521 0.2 1.125 0.2 1.678 0 0.305-0.023 0.53-0.1 0.822-0.034 0.13-0.164 0.697-0.2 0.5-0.119 0.249-0.167 0.632 0.05 0.85 0.383 0.385 0.439 0.25 0.9 0.25 0.787 0 0.85-2.044 0.85-2.6 0-0.742-0.044-2.402-1-2.6-0.727-0.15-1.119 0.812-0.7 1.3v-0.1"/>
<path id="path321" fill="#E94606" d="m84.5 60.479c0 0.406-0.133 1.166 0.15 1.45 0.464 0.466 1.35 0.266 1.35-0.45 0-0.515 0.172-1.327-0.3-1.7-0.491-0.389-1.283 0.1-1.2 0.7"/>
<path id="path323" fill="#E94606" d="m77.2 58.079c0.763 1.155-0.4 2.465-0.4 3.55 0 0.399 0.407 0.699 0.801 0.65 0.41-0.051 0.75-0.601 0.85-1 0.269-1.08 0.913-2.783 0.15-3.8-0.333-0.444-0.621-0.2-1.05-0.2-0.256 0-0.355 0.817-0.351 0.8"/>
<path id="path325" fill="#E94606" d="m79 60.379c0.18 0.207 0.031 0.46 0.15 0.7 0.149 0.299 0.402 0.376 0.649 0.5 0.175-0.095 0.342-0.073 0.5-0.2 0.188-0.153 0.1-0.3 0.25-0.45 0.173-0.172 0.033-0.766-0.1-0.899-0.213-0.214-0.426-0.485-0.85-0.35-0.375 0.119-0.394 0.566-0.599 0.699"/>
<path id="path327" fill="#E94606" d="m63.7 56.879c-0.01 0.321-0.2 0.499-0.2 0.85 0 0.17 0.229 0.75 0.45 0.75 0.32 0 0.547 0.203 0.85-0.1 0.227-0.227 0.163-0.542 0.301-0.8v0.1c0.05-0.473 0.042-0.828-0.4-1.05-0.125-0.063-0.444-0.106-0.55 0-0.134 0.133-0.416 0.308-0.451 0.25"/>
<path id="path329" fill="#E94606" d="m65.9 59.579c0 0.725 0.064 1.9 1 1.9 0.648 0 0.925-0.815 0.5-1.3 0.021 0.089 0.001 0.14 0.1 0.2h-0.1c0-0.617 0.041-0.961-0.35-1.35-0.424-0.422-1.236 0.083-1.15 0.65v-0.1"/>
<path id="path331" fill="#E4BC96" d="m99 196.08c0.565 0.088 1.52-0.611 2-0.899 0.748-0.448 1.42-0.956 2.101-1.5 0.066 0.5 0.133 1 0.199 1.5 1.17-0.221 2.339-0.441 3.509-0.662 0.55-0.104 1.1-0.207 1.65-0.312 0.273-0.052 0.415-0.612 0.52-0.875 0.756-1.889 0.74-4.22 0.458-6.196-0.271-1.912-0.689-3.721-0.527-5.679 0.094-1.134 0.162-2.242 0.4-3.355 0.109-0.51 0.21-1.021 0.312-1.532 0.036-0.179 0.163-0.366-0.034-0.418-0.385-0.104-0.77-0.206-1.154-0.309-1.697-0.453-3.39-0.11-4.953 0.561-0.667 0.287-1.061 0.801-1.581 1.277-0.416 0.381-1.462 1.011-2 0.699-0.828 1.861-1.496 3.794-2.41 5.619-0.863 1.725-1.759 3.854-3.137 5.229-1.422 1.417-3.077 2.513-4.871 3.411-1.866 0.934-3.938 1.603-5.521 2.96-1.289 1.105-2.008 2.398-2.162 4.082 3.641-0.226 7.281-0.452 10.922-0.678 1.001-0.063 2.152 0.046 2.979-0.572 0.554-0.416 1.19-0.719 1.753-1.141 0.308-0.23 0.61-0.45 0.934-0.656 0.15-0.1 0.906-0.44 0.603-0.55"/>
<path id="path333" fill="#99B2B9" d="m110.1 199.58c-0.804 0-1.618-0.163-2.101-0.899-0.327-0.499-0.658-1.503-0.6-2.101-0.84 0.087-1.679 0.174-2.519 0.261-0.401 0.041-0.328-0.025-0.381 0.34-0.045 0.305 0.144 0.571 0.026 0.922-0.187 0.56-0.015 1.012-0.377 1.556-0.351 0.525-0.738 0.722-1.349 0.722-0.157 0.18-0.298 0.454-0.3 0.7 1.215-0.349 2.591-0.371 3.861-0.487 1.261-0.115 2.582-0.326 3.839-0.313-0.03-0.24-0.07-0.47-0.1-0.7"/>
<path id="path335" fill="#99B2B9" d="m82.2 202.08c-0.126 0.304-0.486 0.501-0.6 0.7 0.336-0.074 0.563 0.163 0.899 0.1 0.152-0.11-0.178-0.56-0.299-0.8"/>
<path id="path337" fill="#99B2B9" d="m82.6 202.78c-0.193 0.323-0.354 0.54-0.5 0.8 0.345 0 0.819-0.033 1-0.2-0.188-0.19-0.43-0.36-0.5-0.6"/>
<path id="path339" fill="#99B2B9" d="m83.1 203.28c-0.133 0.267-0.267 0.533-0.4 0.8 0.333-0.133 0.667-0.267 1-0.399-0.226-0.12-0.52-0.19-0.6-0.4"/>
<path id="path341" d="m109.5 190.18c-2.018 0.447-3.853 1.3-5.638 2.321-1.719 0.982-3.237 2.229-4.895 3.334-0.908 0.604-1.907 1.039-2.811 1.641-0.881 0.586-1.737 0.701-2.774 0.86-2.026 0.311-4.063 0.359-6.106 0.473-1.193 0.065-2.387 0.128-3.58 0.213-0.603 0.044-1.194 0.058-1.799 0.058-0.38 0-0.685 0.476-0.396 0.8 0.172 0.207 0.897 0.039 1.229 0.014 1.236-0.093 2.472-0.187 3.708-0.28 2.553-0.193 5.106-0.387 7.659-0.58 1.504-0.114 2.72-1.127 4.004-1.853 1.622-0.916 3.121-2.212 4.8-3v2.1c0.95-0.117 1.9-0.233 2.85-0.35 0.653-0.081 1.306-0.161 1.959-0.241 0.171-0.021 0.755 0.01 0.891-0.109 0.138-0.121 0.16-0.797 0.194-0.969l0.402-2.01c0.16-0.75 0.52-1.65 0.31-2.41"/>
<path id="path343" fill="#F97CFF" d="m57.2 73.479c0.945-0.569 1.281 0.217 2 0.5-0.159 0.711-0.498 1.492-0.8 2-0.102-0.136-0.164-0.055-0.3-0.1-0.454-0.478 0.573-1.272 0.85-1.55 0.478-0.48-0.322-0.236-0.65-0.4-0.335-0.168-0.843-0.313-1.1-0.45"/>
<path id="path345" fill="#E4BC96" d="m184.7 91.379c2.092-0.465 4.19-1.038 6.242-1.653 1.912-0.573 3.764-0.899 5.747-1.072 4.409-0.383 8.833-0.856 13.206-1.54 2.193-0.343 4.37-0.749 6.543-1.202 1.955-0.407 3.745-1.677 4.391-3.622 0.266-0.801-0.455-1.738-0.988-2.27-0.77-0.766-1.751-1.07-2.779-1.326-0.883-0.22-1.949-0.177-2.853-0.22-1.164-0.056-2.327-0.109-3.491-0.158-2.033-0.084-4.074-0.213-6.108-0.125-1.232 0.053-2.403 0.143-3.623 0.317-0.85 0.122-1.844 0.172-2.639 0.491-0.942 0.377-1.947 0.592-2.849 1.079-0.939 0.508-1.715 1.313-2.506 2.017-0.317 0.282-0.441 0.993-0.793 1.183-0.308 0.166-1.261 0-1.602 0h-9c1.02 2.706 2.62 5.23 3.1 8.101"/>
<path id="path347" fill="#AB0805" d="m70.5 92.079c3.728 2.354 7.694 4.171 12.191 3.906 2.047-0.121 4.041-0.448 6.006-1.069 2.125-0.671 4.187-1.321 5.793-2.928 1.446-1.446 2.575-3.618 4.791-3.935 1.99-0.285 4.233 0.888 5.718 2.126-0.884-0.64-2.064 0.432-2.724 0.959-0.73 0.584-1.374 1.571-1.879 2.357-1.231 1.914-2.523 3.402-4.393 4.711-1.69 1.183-3.799 1.737-5.679 2.521-2.025 0.844-4.281 0.657-6.401 0.456-1.33-0.126-2.749-0.871-3.958-1.389-1.25-0.535-2.384-1.228-3.473-2.03-1.015-0.747-2.119-1.476-2.984-2.392-1.025-1.09-2.023-2.187-3.012-3.3"/>
<path id="path349" fill="#B50607" d="m71.4 92.679c3.601 2.084 7.604 4.202 11.928 3.696 4.197-0.491 8.972-1.296 11.853-4.658 1.295-1.512 2.169-3.246 4.36-3.519 1.784-0.222 3.739 0.881 5.059 1.98-1.975-0.791-3.418 1.872-4.341 3.203-1.281 1.849-2.577 3.378-4.432 4.677-0.871 0.61-1.848 1.056-2.842 1.416-0.908 0.33-1.837 0.816-2.77 1.05-2.105 0.526-4.206 0.761-6.354 0.249-1.198-0.285-2.582-0.526-3.681-1.104-1.247-0.656-2.379-1.331-3.541-2.127-0.926-0.635-1.812-1.35-2.63-2.118-0.446-0.418-0.901-0.816-1.292-1.286-0.311-0.367-0.856-1.347-1.318-1.456"/>
<path id="path351" fill="#BF0D06" d="m72.4 93.279c3.58 2.316 7.441 3.87 11.783 3.356 2.25-0.266 4.351-0.797 6.53-1.402 2.047-0.569 3.507-1.937 4.817-3.509 1.165-1.398 1.947-3.064 3.97-3.344 1.648-0.228 3.463 0.711 4.7 1.7-2.253-0.451-3.284 1.966-4.339 3.489-1.21 1.748-2.475 3.259-4.321 4.367-1.83 1.098-3.872 1.877-5.94 2.395-2.184 0.546-4.243 0.483-6.437 0.043-2.144-0.431-4.153-1.631-6.043-2.681-0.905-0.503-1.74-1.33-2.521-2.013-0.397-0.348-0.778-0.674-1.125-1.071-0.316-0.36-0.966-0.863-1.074-1.326"/>
<path id="path353" fill="#C91B03" d="m73.4 93.979c1.853 1.159 3.69 2.13 5.812 2.696 2.033 0.542 4.157 0.358 6.227 0.237 0.995-0.059 1.961-0.362 2.93-0.59 0.985-0.232 2.023-0.47 2.944-0.895 1.074-0.496 2.068-0.956 2.962-1.738 0.697-0.609 1.345-1.546 1.804-2.348 0.721-1.261 1.976-2.761 3.57-2.761 1.638 0 2.961 0.311 4.15 1.5-2.157-0.432-3.263 2.045-4.245 3.518-1.208 1.812-2.551 3.258-4.47 4.324-3.571 1.983-7.85 3.22-11.909 2.152-3.903-1.024-7.133-3.041-9.776-6.091"/>
<path id="path355" fill="#D32B02" d="m74.4 94.579c1.841 1.228 3.705 2.165 5.899 2.601 2.01 0.399 4.119 0.351 6.129-0.005 2.117-0.375 4.358-0.875 6.271-1.896 2.021-1.079 2.835-2.848 4.103-4.625 0.764-1.07 1.627-1.864 2.997-1.975 1.407-0.114 2.545 0.456 3.601 1.3-1.02 0-2.041 0.299-2.595 1.224-0.506 0.844-0.977 1.699-1.56 2.501-1.25 1.721-2.497 3.204-4.446 4.174-3.774 1.879-7.928 2.981-12.089 1.825-1.53-0.425-3.177-0.936-4.508-1.823-0.805-0.537-1.564-1.086-2.325-1.684-0.473-0.376-1.328-1.057-1.472-1.617"/>
<path id="path357" fill="#DF3B03" d="m75.3 95.279c3.663 2.357 7.699 2.929 11.962 2.133 2.027-0.379 4.271-0.773 5.991-1.978 0.924-0.648 1.692-1.357 2.351-2.279 0.56-0.784 0.809-1.89 1.43-2.614 0.93-1.084 1.711-1.519 3.104-1.751 1.067-0.178 2.244 0.471 2.963 1.19-1.17 0-1.843 0.256-2.55 1.2-0.616 0.821-1.034 1.776-1.61 2.641-1.234 1.854-2.842 3.038-4.755 4.102-1.781 0.99-3.933 1.508-5.924 1.859-1.976 0.349-4.34 0.117-6.257-0.447-1.377-0.405-2.601-0.999-3.866-1.673-0.587-0.313-1.09-0.758-1.617-1.164-0.366-0.284-1.092-0.799-1.221-1.219"/>
<path id="path359" fill="#E94606" d="m76.3 95.879c1.833 1.129 3.727 1.987 5.905 2.144 2.23 0.159 4.264 0.042 6.461-0.396 1.849-0.37 4.167-0.98 5.544-2.356 1.531-1.529 2.164-3.452 3.438-5.153 1.283-1.714 3.564-1.429 5.053-0.238-2.379 0-2.998 2.179-3.97 3.962-0.906 1.662-2.855 3.06-4.545 3.811-1.956 0.87-3.98 1.513-6.083 1.908-2.047 0.384-4.387 0.009-6.368-0.519-2.121-0.565-3.824-1.599-5.435-3.063 0.001-0.033 0.001-0.067 0.001-0.1"/>
<path id="path361" fill="#AB0805" d="m100.4 102.38c-1.417-0.85-3.885-1.825-5.524-1.17-1.894 0.756-3.77 1.49-5.774 1.913-2.195 0.463-4.313 0.753-6.541 0.357-2.233-0.396-3.661-1.593-5.161-3.2 0.321 4.192 2.253 8.476 6.174 10.436 4.208 2.104 8.343-1.089 11.504-3.52 1.003-0.771 1.876-1.672 2.768-2.563 0.674-0.674 2.44-1.02 2.754-1.951 0.02-0.17-0.05-0.26-0.2-0.31"/>
<path id="path363" fill="#B50607" d="m77.8 100.78c0.354 2.126 0.814 4.009 1.9 5.9 0.923 1.605 2.569 3.467 4.435 3.964 2.265 0.603 4.158 0.438 6.266-0.614 1.862-0.93 3.598-2.232 5.131-3.637 1.477-1.354 2.937-2.548 4.669-3.513-0.349-0.235-0.676-0.271-1.3-0.5-0.917-0.336-1.92-0.699-2.911-0.699-2.125 0-3.975 1.164-6 1.725-1.97 0.548-4.256 1.017-6.298 0.654-0.984-0.174-2.373-0.294-3.215-0.896-1.008-0.721-1.77-1.408-2.614-2.317-0.02-0.01-0.041-0.03-0.062-0.05"/>
<path id="path365" fill="#BF0D06" d="m78.2 101.28c0.352 2.11 0.855 3.93 2.056 5.733 1.272 1.91 2.904 3.115 5.11 3.704 1.854 0.495 4.207-0.499 5.76-1.453 1.781-1.095 3.506-2.447 5.056-3.857 0.592-0.539 1.141-1.042 1.818-1.426 0.523-0.296 1.452-0.509 1.8-1-0.585-0.281-1.103-0.26-1.8-0.4-0.957-0.193-2.06-0.505-3.021-0.316-0.514 0.102-0.924 0.039-1.416 0.285-0.468 0.234-0.981 0.399-1.467 0.595-0.929 0.372-1.939 0.61-2.9 0.893-1.69 0.497-4.055 0.902-5.785 0.441-0.932-0.248-2.013-0.483-2.814-1.038-0.698-0.47-2.156-1.32-2.397-2.15"/>
<path id="path367" fill="#C91B03" d="m78.6 101.88c0.712 3.574 2.985 8.601 7.334 8.601 4.556 0 7.576-3.508 10.979-6.061 0.744-0.558 1.637-0.941 2.487-1.34-0.712-0.391-1.337-0.107-2.05-0.25-0.761-0.153-1.969-0.188-2.729-0.035-1.81 0.364-3.483 1.154-5.286 1.635-1.831 0.489-3.776 0.884-5.67 0.504-2.175-0.44-3.58-1.45-5.065-3.06"/>
<path id="path369" fill="#D32B02" d="m79 102.38c0.201 1.005 0.478 1.961 0.9 2.899 0.358 0.795 0.91 1.909 1.53 2.53 0.762 0.764 1.512 1.442 2.485 1.929 1.056 0.527 2.113 0.532 3.262 0.45 4.304-0.307 6.746-4.766 10.322-6.409 0.527-0.242 1.098-0.335 1.601-0.598-0.736-0.205-1.439-0.59-2.223-0.328-0.753 0.252-1.673 0.314-2.478 0.426-1.702 0.234-3.273 1.034-4.933 1.51-1.759 0.503-3.848 0.983-5.68 0.563-0.926-0.212-1.897-0.429-2.675-1.013-0.535-0.4-1.996-1.28-2.111-1.96"/>
<path id="path371" fill="#DF3B03" d="m79.4 102.88c0.637 1.911 1.302 3.804 2.764 5.263 1.548 1.546 3.476 2.14 5.627 1.646 2.17-0.497 3.798-1.91 5.483-3.288 0.772-0.631 1.545-1.253 2.352-1.84 0.745-0.542 1.623-1.281 2.574-1.281 0.193 0 0.33 0.006 0.5-0.101-0.743-0.238-1.411-0.454-2.2-0.399-0.737 0.052-1.464 0.467-2.2 0.65-1.64 0.409-3.179 1.229-4.809 1.729-1.779 0.546-3.621 0.834-5.458 0.526-1.94-0.325-3.28-1.451-4.633-2.805v-0.1"/>
<path id="path373" fill="#E94606" d="m79.8 103.48c0.635 1.687 1.507 3.903 3.039 4.998 1.843 1.315 3.803 1.521 5.927 0.812 3.539-1.181 5.618-5.91 9.534-5.91-0.619-0.143-1.325-0.5-1.962-0.5-0.831 0-1.412 0.279-2.133 0.664-1.64 0.875-3.216 1.659-4.997 2.215-1.746 0.546-3.391 0.676-5.196 0.436-1.723-0.24-3.053-1.56-4.212-2.72"/>
<path id="path375" fill="#F7C6ED" d="m64.5 77.479c1.966 0 3.781-1.673 3.8-3.7 0.02-2.065-1.785-3.8-3.8-3.8-1.028 0-1.855 0.425-2.648 1.059-0.843 0.674-1 1.681-1.144 2.689-0.296 2.071 1.953 3.752 3.792 3.752"/>
<path id="path377" fill="#F2BDF6" d="m64.5 70.279c-1.942 0.324-3.399 1.39-3.399 3.5 0 0.927 0.281 1.777 1 2.4 0.601 0.521 1.631 1.154 2.478 0.984 0.985-0.197 1.727-0.387 2.463-1.125 0.548-0.549 0.859-1.563 0.859-2.322 0-0.832-0.369-1.805-0.958-2.396-0.711-0.711-1.502-0.853-2.443-1.041"/>
<path id="path379" fill="#F1B2FB" d="m64.5 70.579c-1.767 0.354-3.1 1.355-3.1 3.278 0 1.42 1.577 3.327 3.178 3.006 0.884-0.177 1.523-0.385 2.169-1.031 0.432-0.432 0.966-1.492 0.838-2.131-0.154-0.766-0.278-1.667-0.947-2.168-0.352-0.264-0.682-0.525-1.075-0.722-0.253-0.127-1.002-0.049-1.063-0.232"/>
<path id="path381" fill="#F8A6FD" d="m64.5 70.879c-1.462 0.292-2.818 1.233-2.8 2.9 0.018 1.559 1.394 2.7 2.862 2.7 3.483 0 3.398-5.703-0.063-5.5 0.001-0.033 0.001-0.067 0.001-0.1"/>
<path id="path383" fill="#F69BFF" d="m64.5 71.279c-1.305 0.327-2.399 0.881-2.399 2.396 0 0.603 0.11 1.215 0.549 1.654 0.517 0.517 0.999 0.637 1.65 0.8 1.245 0.312 2.6-1.05 2.6-2.272 0-1.563-1.021-2.233-2.4-2.578"/>
<path id="path385" fill="#F591FF" d="m64.5 71.579c-1.117 0.254-2.145 0.922-2.1 2.2 0.043 1.202 1.017 2 2.177 2 1.052 0 2.245-1.116 1.973-2.2-0.121-0.479-0.168-1.045-0.628-1.352-0.253-0.168-1.383-0.551-1.422-0.648"/>
<path id="path387" fill="#F885FF" d="m64.5 71.879c-0.437 0.146-0.95 0.281-1.3 0.6-0.377 0.343-0.329 0.784-0.474 1.222-0.131 0.395 0.264 0.855 0.424 1.178 0.196 0.394 0.942 0.612 1.35 0.6 2.288-0.067 2.088-3.844 0-3.5v-0.1"/>
<path id="path389" fill="#F97CFF" d="m64.5 72.279c-0.299 0.19-0.575 0.076-0.852 0.352-0.313 0.313-0.548 0.431-0.548 0.926 0 0.844 0.317 1.427 1.199 1.522 0.771 0.083 1.561-0.391 1.601-1.3 0.041-0.946-0.72-1.196-1.4-1.5"/>
<path id="path391" fill="#D09A08" d="m69.6 64.579c0 0.968 0.337 1.869 1.262 2.331 0.454 0.227 0.811 0.269 1.316 0.269 0.416 0 0.422-0.064 0.422 0.35 0 0.299 0.031 0.571 0.074 0.868 0.284 1.995 1.496 3.618 3.326 4.481 3.833 1.808 8.306 1.719 11.948-0.469 1.129-0.678 2.677-1.4 3.952-0.831-1.242-1.35-2.805-0.577-4.322-0.24-1.632 0.362-3.201 0.992-4.863 1.2-1.748 0.219-3.34 0.216-4.815-0.86-0.771-0.563-1.154-1.261-1.522-2.119-0.322-0.749-0.075-1.606 0.022-2.381-0.802 0.055-1.798-0.208-2.5-0.6-0.399-0.223-0.768-0.536-0.969-0.938-0.126-0.253-0.053-1.116-0.231-1.163h-0.201c-0.424 0.234-0.719 0.6-1.322 0.6-0.192 0-0.573-0.065-0.756-0.126-0.276-0.092-0.423-0.329-0.722-0.374-0.032 0.002-0.065 0.002-0.099 0.002"/>
<path id="path393" fill="#D09A08" d="m88.3 67.879c0.705-0.069 1.478 0.2 2.204 0.2 1.03 0 1.622-0.396 2.499-0.922 1.62-0.972 2.621-2.755 3.594-4.312 0.984-1.574 1.927-3.141 3.074-4.602 0.511-0.65 1.22-1.214 1.893-1.695 0.914-0.653 1.647-0.867 2.737-1.17-0.721 0-1.567-0.357-2.262-0.184-0.845 0.21-1.498 0.48-2.167 1.047-1.5 1.269-2.558 2.903-3.517 4.607-0.932 1.656-1.981 3.312-3.216 4.752-1.303 1.52-2.949 1.964-4.84 2.279"/>
<path id="path395" fill="#D09A08" d="m105 57.879c-1.555 0.623-2.296 1.394-2.92 2.952-0.591 1.477-0.437 3.167-0.998 4.663-0.577 1.539-1.143 2.994-2.56 3.937-0.505 0.336-4.266 1.278-3.922-0.052-0.267 2.08 2.641 1.432 3.722 1.216 0.658-0.132 1.406-0.764 1.878-1.216 0.638-0.611 0.976-1.44 1.296-2.241 0.62-1.548 0.72-3.279 1.199-4.875 0.278-0.928 0.554-1.781 0.988-2.649 0.158-0.315 0.394-0.661 0.617-0.934 0.15-0.197 0.85-0.731 0.69-0.801"/>
<path id="path397" fill="#D09A08" d="m97.1 56.479c-0.865-0.333-1.959 0.26-2.547 0.847-0.781 0.78-1.151 1.649-1.631 2.609-0.94 1.881-1.696 3.784-3.022 5.444 0.852 0.161 1.453-1.404 1.853-1.938 0.214-0.286 0.336-0.768 0.527-1.101 0.265-0.464 0.462-0.943 0.7-1.42 0.486-0.974 0.959-1.916 1.593-2.803 0.681-0.952 1.478-1.351 2.583-1.627 0.115-0.029-0.034-0.006-0.056-0.011"/>
<path id="path399" fill="#AB0805" d="m67.4 95.379c-0.408-2.134-2.704-2.596-4.495-2.969-1.915-0.399-4.345-0.462-6.264-0.026-2.161 0.491-4.249 1.023-6.305 1.863-2.122 0.867-4.182 1.853-6.269 2.802-0.937 0.426-1.78 1.026-2.768 1.331-0.97 0.299-1.897 0.285-2.881 0.426-0.99 0.142-2.058 0.189-3.008 0.504-0.986 0.327-1.821 0.838-2.726 1.333-1.033 0.564-1.859 1.211-2.691 2.043-0.578 0.577-1.475 1.534-1.736 2.318-0.375 1.13-0.558 2.162-0.558 3.354 0 0.539 0.016 0.39 0.4 0.321 0.298-0.053 0.466-0.164 0.721-0.313 1.865-1.097 3.761-2.124 5.948-2.356 2.208-0.234 4.417-0.357 6.634-0.241 1.971 0.104 4.074 0.018 6.022-0.309 2.137-0.358 4.028-1.146 5.925-2.18 2.591-1.412 5.14-3.104 8.15-3.4 1.535-0.151 2.901-0.258 4.349-0.878 1.616-0.682 1.896-2.068 1.552-3.613"/>
<path id="path401" fill="#E94606" d="m65 96.879c-1.376-0.29-2.813-0.699-4.225-0.699-1.585 0-3.009 0.107-4.548 0.493-2.947 0.74-5.197 2.773-7.427 4.706 0.067-0.033 0.133-0.067 0.2-0.1-1.012 1.123-2.847 2-4.35 2-1.658 0-3.297-0.5-4.969-0.5-1.863 0-3.643 0.221-5.417 0.812-0.78 0.26-1.642 0.519-2.276 1.047-0.715 0.597-1.402 1.213-2.088 1.843 0.252-0.504 0.504-1.009 0.755-1.513 0.229-0.458 0.808-0.851 1.168-1.21 0.621-0.618 2.012-0.87 2.843-1.102 2.039-0.567 4.324-0.475 6.425-0.475 2.047 0 4.165-0.317 5.912-1.398 1.81-1.121 3.646-2.195 5.462-3.304 1.971-1.204 4.002-2.261 6.326-2.52 2.392-0.266 4.307 0.721 6.291 1.911 0.054 0.033-0.07 0.008-0.082 0.012"/>
<path id="path403" fill="#BF8044" d="m117.6 122.28c0.273 2.184 0.51 4.292 0.4 6.5-0.108 2.193-0.393 4.426-0.7 6.6-0.609 4.307-1.638 8.543-2.749 12.736-0.508 1.917-1.088 4.093-0.601 6.064 0.443 1.789 0.366 4.237 0.148 6.118-0.261 2.245-0.546 4.43-1.144 6.612-0.525 1.92-1.044 3.994-2.032 5.73-0.51 0.898-0.788 2.062-1.125 3.039 0.504-4.257 0.873-8.733 0.625-13.017-0.063-1.074-0.129-2.148-0.191-3.223-0.063-1.079-0.374-2.153-0.528-3.229-0.31-2.156-0.505-4.272-0.505-6.451 0-4.282 1.957-8.307 2.979-12.394 0.539-2.155 1.142-4.287 1.471-6.488 0.149-1.001 0.252-2.011 0.252-3.025v-1.877c0-0.446 0.454-1.044 0.643-1.437 0.314-0.656 0.376-1.085 1.031-1.362 0.709-0.299 1.417-0.599 2.126-0.898h-0.1"/>
<path id="path405" fill="#BF8044" d="m183.5 87.579c-0.129-0.799-0.617-1.69-0.921-2.452-0.166-0.417-0.384-0.808-0.55-1.224-0.222-0.556-0.872-0.295-1.429-0.274-2.216 0.085-4.424 0.188-6.635 0.345-4.161 0.298-8.472 0.483-12.563 1.346-1.029 0.217-2.353 0.336-3.302 0.809-0.861 0.429-1.724 0.8-2.652 1.065-2.085 0.595-4.202 0.215-6.335 0.097-4.168-0.231-8.479-0.432-12.643-0.054-1.108 0.101-1.598 0.159-2.529 0.713-0.913 0.543-1.827 1.086-2.74 1.63 0.948 0.727 1.896 1.454 2.845 2.181 0.435 0.333 1.932-0.141 2.49-0.184 2.135-0.164 4.248-0.297 6.39-0.297 2.181 0 4.343 0.2 6.522 0.2 2.145 0 4.31-0.13 6.446-0.308 4.27-0.355 8.426-1.608 12.581-2.586 2.133-0.502 4.324-0.694 6.496-0.955 1.993-0.239 4.08-0.381 6.085-0.232 0.79 0.059 1.6 0.12 2.42 0.18"/>
<path id="path407" fill="#E94606" d="m18.3 101.78c0.236-0.078 0.848-0.552 1.05-0.35 0.136 0.136 0.792 0.41 1 0.201 0.258-0.259 0.45-0.344 0.45-0.801 0-0.339-0.399-0.64-0.699-0.75-0.712-0.261-2.313-0.116-2.7 0.601-0.43 0.795 0.327 1.099 1 1.099h-0.101"/>
<path id="path409" fill="#E94606" d="m138.3 63.079c-0.457 0.219-1.075 0.158-1.578 0.326-0.268 0.09-0.564 0.157-0.821 0.274-0.173 0.079-0.469 0.4-0.649 0.4-0.54 0-0.203 1.409 0.649 1.3 0.465-0.06 0.875-0.6 1.4-0.6 0.293 0 1.229-0.026 1.45-0.25 0.393-0.399 0.461-1.47-0.451-1.35v-0.1"/>
<metadata><rdf:RDF><cc:Work><dc:format>image/svg+xml</dc:format><dc:type rdf:resource="http://purl.org/dc/dcmitype/StillImage"/><cc:license rdf:resource="http://creativecommons.org/licenses/publicdomain/"/><dc:publisher><cc:Agent rdf:about="http://openclipart.org/"><dc:title>Openclipart</dc:title></cc:Agent></dc:publisher><dc:title>Architetto -- pattinatrice</dc:title><dc:date>2010-03-20T14:17:44</dc:date><dc:description>Drawing by Francesco 'Architetto' Rollandin. From OCAL 0.18 release.</dc:description><dc:source>http://openclipart.org/detail/32749/architetto----pattinatrice-by-anonymous</dc:source><dc:creator><cc:Agent><dc:title>Anonymous</dc:title></cc:Agent></dc:creator><dc:subject><rdf:Bag><rdf:li>clip art</rdf:li><rdf:li>clipart</rdf:li><rdf:li>girl</rdf:li><rdf:li>ice</rdf:li><rdf:li>people</rdf:li><rdf:li>skating</rdf:li><rdf:li>sport</rdf:li><rdf:li>winter</rdf:li></rdf:Bag></dc:subject></cc:Work><cc:License rdf:about="http://creativecommons.org/licenses/publicdomain/"><cc:permits rdf:resource="http://creativecommons.org/ns#Reproduction"/><cc:permits rdf:resource="http://creativecommons.org/ns#Distribution"/><cc:permits rdf:resource="http://creativecommons.org/ns#DerivativeWorks"/></cc:License></rdf:RDF></metadata></svg>
