<?xml version="1.0" standalone="no"?>
<!DOCTYPE svg PUBLIC "-//W3C//DTD SVG 20010904//EN"
 "http://www.w3.org/TR/2001/REC-SVG-20010904/DTD/svg10.dtd">
<svg version="1.0" xmlns="http://www.w3.org/2000/svg"
 width="882.000000pt" height="1280.000000pt" viewBox="0 0 882.000000 1280.000000"
 preserveAspectRatio="xMidYMid meet">
<metadata>
Created by potrace 1.15, written by Peter Selinger 2001-2017
</metadata>
<g transform="translate(0.000000,1280.000000) scale(0.100000,-0.100000)"
fill="#000000" stroke="none">
<path d="M2940 12794 c-343 -43 -661 -255 -825 -549 -20 -36 -38 -65 -40 -65
-4 0 -198 29 -877 130 -112 17 -273 41 -358 54 -177 28 -362 41 -403 29 -21
-6 -38 -25 -62 -68 l-33 -60 25 -61 25 -61 100 -28 c54 -15 96 -31 91 -35 -4
-4 -35 -27 -68 -51 -147 -106 -312 -296 -387 -444 -186 -366 -165 -810 62
-1290 126 -268 394 -504 749 -659 596 -261 1311 -345 1991 -235 412 67 657
157 768 285 50 56 122 220 132 298 21 172 -55 340 -184 409 -37 20 -55 22
-191 21 -97 0 -178 -6 -230 -16 -133 -27 -254 -56 -370 -88 -469 -129 -646
-160 -910 -160 -413 0 -777 103 -1073 302 -99 67 -216 185 -285 289 -68 103
-98 166 -132 284 -23 77 -27 110 -28 225 -1 154 13 234 68 365 56 136 136 259
242 375 l60 64 119 -17 c65 -9 243 -35 394 -57 151 -22 307 -45 345 -51 77
-11 253 -37 301 -44 l30 -5 2 -105 c5 -268 110 -526 295 -721 93 -98 168 -155
282 -211 255 -127 518 -153 781 -78 303 87 533 283 669 570 29 61 58 133 65
160 7 28 16 54 20 59 7 7 89 -3 285 -34 33 -5 121 -19 195 -29 74 -11 227 -34
340 -51 113 -17 266 -40 340 -51 74 -10 162 -24 195 -29 33 -5 121 -19 195
-29 74 -11 227 -34 340 -51 113 -17 266 -40 340 -51 74 -10 162 -24 195 -29
33 -5 121 -19 195 -29 74 -11 227 -34 340 -51 477 -72 612 -92 740 -111 74
-10 163 -24 197 -30 l62 -11 6 -57 c45 -409 106 -602 230 -726 67 -68 127 -95
208 -95 73 0 108 20 184 103 89 97 128 212 128 377 -1 163 -38 276 -138 424
-111 163 -299 266 -517 281 -81 6 -223 24 -355 45 -33 5 -122 19 -197 30 -196
29 -372 55 -608 90 -236 35 -412 61 -607 90 -76 11 -165 25 -198 30 -33 5
-152 23 -265 40 -113 17 -232 35 -265 40 -33 5 -181 28 -330 50 -148 22 -297
45 -330 50 -33 5 -181 28 -330 50 -148 22 -297 45 -330 50 -33 5 -95 15 -137
21 l-77 12 -24 61 c-13 33 -35 95 -47 136 -33 107 -61 167 -121 256 -186 278
-511 457 -849 468 -63 2 -131 2 -150 0z"/>
<path d="M3845 7190 c-173 -25 -282 -106 -355 -263 -97 -211 -121 -490 -70
-822 44 -284 44 -283 122 -575 259 -974 775 -2292 1315 -3363 250 -496 356
-669 649 -1063 98 -133 263 -361 366 -505 180 -255 320 -437 422 -550 l48 -54
-6 75 c-7 100 -44 222 -115 388 -33 75 -94 236 -136 357 -42 121 -94 270 -115
330 -538 1535 -765 2267 -931 3010 -110 494 -158 785 -219 1332 -46 417 -79
628 -135 869 -66 280 -176 488 -380 717 -76 86 -89 96 -132 105 -70 15 -259
22 -328 12z"/>
<path d="M2860 6879 c-263 -71 -512 -245 -673 -471 -161 -226 -298 -570 -411
-1038 -33 -133 -48 -202 -120 -545 -66 -310 -152 -895 -206 -1395 -39 -370
-44 -429 -90 -1070 -6 -80 -15 -605 -20 -1167 l-10 -1023 24 -47 c14 -27 34
-59 45 -73 l19 -25 8 30 c3 17 17 73 31 125 27 110 125 548 178 795 58 277 71
335 145 675 40 179 85 375 100 435 16 61 52 200 80 310 198 771 342 1233 531
1703 106 262 195 449 365 769 305 572 419 874 463 1222 29 227 -4 500 -74 611
-34 54 -115 122 -193 163 -80 42 -90 43 -192 16z"/>
<path d="M3667 796 c-58 -16 -142 -73 -181 -123 -17 -20 -41 -64 -54 -96 -32
-81 -29 -196 9 -277 33 -70 103 -141 177 -177 50 -24 69 -28 147 -28 82 0 97
3 157 33 128 63 201 180 201 322 0 95 -26 166 -88 237 -88 100 -240 145 -368
109z m152 -302 c12 -15 21 -34 21 -44 0 -10 -9 -29 -21 -44 -40 -50 -119 -21
-119 44 0 65 79 94 119 44z"/>
</g>
</svg>
